<svg role="presentation" xmlns="http://www.w3.org/2000/svg" viewBox="0 0 680.691 712"><path d="M562.92 212.672c.055.018.1.024.156.04-1.178-1.723-2.356-3.446-3.564-5.153 1.128 2.741 2.07 4.667 3.407 5.112"/><path d="M346.35 691.776c.742-.276 1.488-.545 2.228-.828a3.5 3.5 0 0 0-2.228.828"/><path d="M1.142 221.37c-.009.029 0 .067-.01.1.384-.459.769-.918 1.158-1.375a2.468 2.468 0 0 0-1.148 1.277"/><path d="M343.396 64.2c-2.952-2.3-7.549-2.41-10.906-2.493-.885-.022-1.679-.042-2.38-.1a375.222 375.222 0 0 1 15.26 3.762 10.267 10.267 0 0 1-1.975-1.174"/><path d="m3.329 230.246.142.4c.267-.33.528-.665.8-.994a35.252 35.252 0 0 0-2.4-5.589 7.834 7.834 0 0 1-.533-1.147c-.26.312-.526.619-.784.931.113.243.223.484.371.748a35.786 35.786 0 0 1 2.407 5.655"/><path d="M8.235 215.335c.255-.4.482-.811.7-1.226-1.275 1.425-2.551 2.849-3.8 4.292a10.215 10.215 0 0 0 3.1-3.066"/><path d="M1.141 221.37a2.468 2.468 0 0 1 1.149-1.277c.711-.84 1.41-1.688 2.13-2.521-.5.32-.994.6-1.472.872C1.6 219.198.44 219.853.1 221.076a3.111 3.111 0 0 0 .02 1.6c.336-.405.679-.8 1.017-1.207.007-.03 0-.068.01-.1"/><path d="M8.044 213.478c.721-.807 1.44-1.616 2.17-2.417a59.34 59.34 0 0 0 1.9-9.022c.16-1 .325-2.017.5-3.06-.442.454-.891.906-1.329 1.362-.085.52-.167 1.033-.245 1.525-.742 4.63-1.349 8.4-3 11.612"/><path d="M257.078 381.936c-.428-.088-.861-.156-1.294-.232.167.39.359.792.582 1.208 1.259 2.353 3.493 5.168 7.655 8.867l1.068.946c1.1.968 2.085 1.829 2.979 2.609.618.539 1.189 1.037 1.727 1.51 3.922 3.447 5.882 5.395 8.509 9.662a37.575 37.575 0 0 0 3.54 4.8c.45.526.891 1.025 1.313 1.5.331.373.651.736.964 1.1a21.087 21.087 0 0 1 3.889 5.979c.808 1.94 1.446 3.259 1.958 4.32a14.031 14.031 0 0 1 1.716 5.283 15.523 15.523 0 0 0 1.043 3.51c.249.626.521 1.268.823 1.928.112-.68.206-1.366.288-2.056a46.272 46.272 0 0 0-36.761-50.935m35.685 47.419a15.034 15.034 0 0 0-1.816-5.622c-.506-1.048-1.137-2.353-1.934-4.265a25.176 25.176 0 0 0-5.042-7.38c-.4-.449-.8-.9-1.2-1.37a36.2 36.2 0 0 1-3.541-4.782c-2.716-4.413-4.723-6.4-8.753-9.94-.529-.465-1.089-.954-1.694-1.482a690.051 690.051 0 0 1-4.039-3.548 35.822 35.822 0 0 1-6.975-7.759 45.349 45.349 0 0 1 35.322 44.162c0 1.018-.046 2.025-.113 3.026a8.152 8.152 0 0 1-.215-1.042"/><path d="M300.727 427.371a52.744 52.744 0 0 1-2.166 14.957q-.218.74-.456 1.468l.128.253a6.63 6.63 0 0 0 .608.956 21.521 21.521 0 0 0 1.968 2.2c1.87 1.9 2.948 3.129 2.127 4.156-.593.741-1.832 1-3.03 1.24-1.379.282-2.805.575-3.456 1.663a3.275 3.275 0 0 0-.106 2.7 11.958 11.958 0 0 0 1.937 3.826c.229.31.469.606.712.9.212-.315.409-.64.616-.958a61.58 61.58 0 0 0-35.925-92.912 10.548 10.548 0 0 0-.073-1.378c-.116-1.083-.135-1.54.587-1.972a3.223 3.223 0 0 0 1.529-2.878 68.121 68.121 0 0 1 38.04 104.694c-.233.336-.471.668-.71 1 .071.142.142.278.213.427.11.236.227.445.342.665a25.032 25.032 0 0 0 2.167 3.339 17.284 17.284 0 0 1 1.625 2.471 7.6 7.6 0 0 1 .471 1.158q.4-.505.8-1.017a76.832 76.832 0 0 0-44-121.978c-.358-.08-.714-.173-1.074-.249a5.375 5.375 0 0 0-.307 1.044c.355.074.7.165 1.056.244a75.757 75.757 0 0 1 43.787 119.862 22.411 22.411 0 0 0-1.487-2.183 21.709 21.709 0 0 1-2.332-3.686 69.206 69.206 0 0 0-38.639-106.943q-.569-.151-1.139-.294a8.16 8.16 0 0 1 .085 1.134 2.4 2.4 0 0 1-.986 2.249c-1.345.807-1.224 1.932-1.108 3.021.034.316.068.644.075.986a4.76 4.76 0 0 1-.1 1.092 5.373 5.373 0 0 1-1.316 2.435 7.3 7.3 0 0 1-4.079 2.307 6.316 6.316 0 0 0-1.559.559 1.919 1.919 0 0 0-.845.987c.385.051.772.089 1.155.148a53 53 0 0 1 44.867 52.308m-1.815 32.425a10.692 10.692 0 0 1-1.528-3.152 2.3 2.3 0 0 1 0-1.827c.405-.679 1.54-.911 2.741-1.157a10.066 10.066 0 0 0 2.585-.774 60.475 60.475 0 0 1-3.8 6.91m-36.906-88.02a6.449 6.449 0 0 0 1.546-2.874 60.5 60.5 0 0 1 40.546 80.75 11.318 11.318 0 0 0-2.515-3.214 14.09 14.09 0 0 1-2.3-2.745 53.991 53.991 0 0 0-41.485-69.386 8.009 8.009 0 0 0 4.209-2.531"/><path d="M385.825 427.37c0-76.1-61.915-138.016-138.016-138.016a137.3 137.3 0 0 0-83.355 28.091q-1.619 1.23-3.2 2.509c.931-.413 2.111-.9 3.744-1.559l.748-.3a121.254 121.254 0 0 0 4.91-2.1c3.143-1.4 4.579-2.042 7.416-2.042 2.985 0 4.657-.926 6.972-2.209 1.086-.6 2.317-1.284 3.926-2.016a30.356 30.356 0 0 1 9.1-2.874 21.732 21.732 0 0 1 3.237-.127 27.92 27.92 0 0 1 3.14.261 45.4 45.4 0 0 0 5.834.405c2.626.056 4.462.1 6.214 1.284a7.351 7.351 0 0 1 .669.505c.138.119.274.222.411.331.45-.116.9-.222 1.357-.331A121.659 121.659 0 0 1 284.996 543.2c-.623-1.812-.138-3.28.426-4.951a19.651 19.651 0 0 0 .676-2.335 115.112 115.112 0 0 0-61.72-221.253c-.353.073-.7.154-1.056.23a7.52 7.52 0 0 1 .153.9c.007.062 0 .119 0 .18.361-.079.72-.162 1.082-.237a114.023 114.023 0 0 1 61.716 218.967 8.714 8.714 0 0 0 0-1.388c-.26-3.119-.081-4.392.566-5.817a107.475 107.475 0 0 0-63.4-204.806c-.366.085-.729.178-1.094.267 0 .008 0 .015.009.024a3.066 3.066 0 0 0 .7.921 8.488 8.488 0 0 0 3.112 1.625 30.1 30.1 0 0 1 4.809 2.133c.7.369 1.349.707 2 .981a7.454 7.454 0 0 0 3.368.652 8.777 8.777 0 0 0 1.174-.135 17 17 0 0 0 3.894-1.278l.349-.154c6.983-3.1 11.415-4.855 13.932-2.761a5.191 5.191 0 0 1 1.812 3.043l.089.355c.062.252.126.505.2.76a5.962 5.962 0 0 0 1.576 2.77c1.189 1.188 3.038.881 4.827.58 2.553-.428 4.153-.583 4.781 1.511a6.85 6.85 0 0 0 .736 1.794 11.713 11.713 0 0 0-.721 1.878c-.1.306-.2.659-.306 1.044.353.083.709.159 1.061.245a91.078 91.078 0 0 1 25.117 166.411 58.539 58.539 0 0 1 2.052-6.6c1.5-3.748 1.916-3.927 5.16-5.33.573-.247 1.228-.53 1.984-.873 3.558-1.617 4-3.4 4.245-6.187a84.478 84.478 0 0 0-40.312-141.106c-.354-.087-.71-.165-1.065-.247-.126.359-.251.7-.376 1.027.356.083.716.161 1.071.248a83.384 83.384 0 0 1 40.824 138.355c-.4.419-.788.841-1.193 1.25a20.72 20.72 0 0 1-.19 1.724c-.3 1.792-.988 2.825-3.454 3.946-.659.3-1.229.547-1.746.771l-.218.095c-2.648 1.144-3.649 1.585-4.764 3.735a24.652 24.652 0 0 0-.975 2.189 65.144 65.144 0 0 0-2.354 7.756c-.123.49-.241.976-.355 1.456a100.7 100.7 0 0 0 1.3-.746A92.152 92.152 0 0 0 270.061 337.9a9.292 9.292 0 0 1 .667-1.713l.279-.049-.028-.951-.373-.039a6 6 0 0 1-.585-1.478c-.935-3.117-3.745-2.648-6-2.27-1.587.265-3.087.514-3.88-.277a4.742 4.742 0 0 1-1.164-1.869 98.734 98.734 0 0 1 33.7 186.064c-.417.213-.838.418-1.259.626a10.026 10.026 0 0 1-.55 1.481c.487-.234.967-.475 1.448-.716a99.817 99.817 0 0 0-33.672-188.579l-.007-.024a6.562 6.562 0 0 0-2.26-3.972c-3.049-2.542-7.845-.608-15.418 2.757a16.327 16.327 0 0 1-3.53 1.187 7.549 7.549 0 0 1-1.2.137c-1.763.055-3.035-.6-4.759-1.512a30.991 30.991 0 0 0-4.971-2.2 10.307 10.307 0 0 1-2.086-.913 106.381 106.381 0 0 1 63.18 202.437q-.775.313-1.557.616a9.588 9.588 0 0 0-.572 1.38 13.613 13.613 0 0 0-.281 5.388 7.564 7.564 0 0 1-.07 1.7 10.222 10.222 0 0 1-.251 1.24c-.142.531-.3 1.049-.475 1.554-.6 1.776-1.168 3.5-.427 5.633a7.482 7.482 0 0 0 .425 1 15.494 15.494 0 0 0 3.288 4.062 51.206 51.206 0 0 1 2.184 2.182c.374-.128.745-.264 1.118-.394a130.377 130.377 0 1 0-89.838-244.76c-5.056-.094-8.757 1.354-12.619 3.111-1.649.749-2.9 1.442-4 2.054-2.254 1.248-3.743 2.073-6.446 2.073-3.068 0-4.669.714-7.858 2.135-.472.211-1.006.446-1.572.694a136.186 136.186 0 0 1 79.167-25.25c75.5 0 136.93 61.426 136.93 136.93a137.164 137.164 0 0 1-89.733 128.54c-.344.127-.692.247-1.037.37.185.326.356.647.524.968.343-.124.689-.247 1.032-.373a138.252 138.252 0 0 0 90.3-129.51M247.809 298.078a129.293 129.293 0 0 1 42.356 251.452 51.691 51.691 0 0 0-1.746-1.714 14.847 14.847 0 0 1-2.988-3.609 122.747 122.747 0 0 0-67.6-235.869c-2.246-1.907-4.465-1.958-7.53-2.025a44.734 44.734 0 0 1-5.7-.394 18.995 18.995 0 0 0-.854-.1 128.692 128.692 0 0 1 44.063-7.736"/><path d="M247.809 274.08a152.815 152.815 0 0 0-108.452 45.061c-.349.349-.689.706-1.033 1.058q.733.011 1.446.073a11.434 11.434 0 0 1 4.187 1.056 23.7 23.7 0 0 1 2.545 1.5l.472.315.451.3c.267-.257.53-.519.8-.775a144.061 144.061 0 0 1 99.584-39.864c79.715 0 144.568 64.853 144.568 144.568 0 61.86-39.059 114.761-93.808 135.36-.345.13-.689.267-1.035.394q.277.458.59.937c.346-.127.69-.263 1.035-.394 55.05-20.808 94.3-74.05 94.3-136.3 0-80.315-65.34-145.654-145.654-145.654a145.146 145.146 0 0 0-100.513 40.336 25.532 25.532 0 0 0-2.852-1.7 11.686 11.686 0 0 0-3.679-1.076 151.707 151.707 0 0 1 107.048-44.109c83.926 0 152.2 68.278 152.2 152.206 0 64.614-40.476 119.946-97.4 141.992-.342.133-.684.262-1.027.392.181.318.361.635.54.956.342-.129.685-.257 1.026-.39 57.254-22.242 97.949-77.93 97.949-142.95 0-84.526-68.766-153.292-153.291-153.292"/><path d="M408.737 427.37c0-88.736-72.192-160.928-160.928-160.928a160.557 160.557 0 0 0-119.212 52.938c-.308.34-.609.688-.915 1.031.226.015.472.021.686.042s.461.027.691.04q.477-.528.958-1.054a159.449 159.449 0 0 1 117.792-51.911c88.137 0 159.842 71.705 159.842 159.842 0 67.5-42.052 125.354-101.331 148.753-.339.134-.683.259-1.023.39l.52.964c.34-.133.683-.258 1.022-.392 59.619-23.59 101.9-81.807 101.9-149.715"/><path d="M247.808 258.805a168.29 168.29 0 0 0-129.765 61.1c-.35.421-.692.847-1.037 1.272.535-.092 1.07-.184 1.6-.261.344-.417.7-.825 1.048-1.239a167.176 167.176 0 0 1 128.15-59.783c92.348 0 167.48 75.132 167.48 167.48 0 70.333-43.583 130.67-105.157 155.445-.34.137-.676.28-1.017.415.188.313.377.627.562.945.34-.135.674-.279 1.013-.416 61.893-24.977 105.693-85.662 105.693-156.392 0-92.948-75.618-168.566-168.566-168.566"/><path d="M247.809 243.53a183.826 183.826 0 0 0-153.837 83.3c-.235.356-.472.71-.7 1.069q.608.029 1.3-.007c.165-.009.313-.005.485-.02a32.3 32.3 0 0 0 9.311-2.73q.647-.269 1.289-.539l.643-.267c.407-.558.808-1.122 1.222-1.675a174.967 174.967 0 0 1 140.285-70.413c96.559 0 175.116 78.557 175.116 175.117 0 73.378-45.371 136.349-109.528 162.361-.34.137-.678.281-1.019.417.073.285.144.568.19.843.013.077.01.165.018.244a12.78 12.78 0 0 1-.287 3.2 27.317 27.317 0 0 0-.467 4.109c-.008.376 0 .76.018 1.155.362-.135.721-.275 1.082-.412 69.319-26.347 118.716-93.465 118.716-171.912 0-101.37-82.471-183.841-183.84-183.841m65.135 354.587a28.7 28.7 0 0 1 .427-3.5 11.965 11.965 0 0 0 .268-3.8v-.005c64.643-26.131 110.373-89.539 110.373-163.435 0-97.158-79.044-176.2-176.2-176.2a176.068 176.068 0 0 0-142.2 72.286l-.366.153c-3.292 1.38-6.691 2.8-9.911 3.144a182.729 182.729 0 0 1 152.481-82.135c100.771 0 182.754 81.983 182.754 182.755 0 77.835-48.917 144.45-117.619 170.746"/><path d="M439.287 427.371c0-105.581-85.9-191.478-191.478-191.478a191.493 191.493 0 0 0-161.061 88.028c-.2.305-.389.612-.583.917.316.2.619.4.908.6.194-.305.387-.611.583-.916a190.4 190.4 0 0 1 160.153-87.54c104.982 0 190.392 85.41 190.392 190.392 0 81.594-51.6 151.355-123.875 178.393-.342.128-.68.264-1.023.389.084.34.167.7.251 1.067.342-.126.681-.262 1.023-.389 72.756-27.158 124.71-97.351 124.71-179.46"/><path d="M446.924 427.37c0-109.792-89.323-199.115-199.115-199.115a199.134 199.134 0 0 0-167.643 91.781c-.2.305-.384.614-.578.92.281.226.565.451.866.664.193-.305.38-.616.576-.921a198.05 198.05 0 0 1 166.781-91.358c109.194 0 198.029 88.835 198.029 198.029 0 85.278-54.184 158.139-129.932 185.964-.343.126-.691.243-1.035.368.067.359.135.718.2 1.08.344-.124.693-.24 1.036-.366 76.253-27.931 130.815-101.236 130.815-187.046"/><path d="M454.561 427.371c0-114-92.749-206.752-206.752-206.752A206.736 206.736 0 0 0 74.842 314.24c-.209.317-.42.632-.627.95l.178.219.54.665c.206-.319.419-.633.627-.951a205.656 205.656 0 0 1 172.249-93.418c113.4 0 205.666 92.261 205.666 205.666 0 89.013-56.846 164.989-136.136 193.559-.344.124-.691.243-1.035.365.071.365.142.721.214 1.076.345-.122.691-.241 1.034-.365 79.79-28.678 137.01-105.095 137.01-194.635"/><path d="M462.198 427.371c0-118.215-96.174-214.391-214.39-214.391a214.355 214.355 0 0 0-178.392 95.617c-.2.3-.4.606-.6.908.279.209.562.439.848.686.2-.3.4-.61.6-.914a213.271 213.271 0 0 1 177.541-95.211c117.616 0 213.3 95.688 213.3 213.3 0 92.634-59.361 171.651-142.036 201.045l-1.024.362c.035.111.071.241.105.347.076.228.156.456.234.684l1.024-.361c83.115-29.533 142.79-108.954 142.79-202.072"/><path d="M469.836 427.37c0-122.426-99.6-222.027-222.027-222.027-77.3 0-145.485 39.715-185.26 99.8q-.3.459-.607.92.525.233 1.011.439c.2-.307.4-.616.608-.922 39.6-59.7 107.4-99.153 184.247-99.153 121.828 0 220.941 99.113 220.941 220.941 0 95.912-61.437 177.731-147.018 208.206-.345.123-.692.245-1.037.366.142.336.292.666.441 1q.518-.181 1.035-.365c85.963-30.647 147.666-112.849 147.666-209.2"/><path d="M477.474 427.371c0-126.638-103.027-229.665-229.665-229.665-79.9 0-150.388 41.022-191.545 103.1l-.6.916q.415.362.83.715l.6-.917c40.95-61.851 111.143-102.729 190.714-102.729 126.039 0 228.579 102.54 228.579 228.579 0 98.806-63.02 183.161-150.973 215.007-.352.127-.708.248-1.061.374.215.312.43.622.656.921.362-.13.727-.253 1.088-.384 88.208-32.082 151.377-116.759 151.377-215.917"/><path d="M437.208 237.971a267.855 267.855 0 0 0-378.8 0 271.611 271.611 0 0 0-26.211 30.392c-.239.323-.467.651-.7.973.136.247.272.5.406.732l.179.312c.235-.321.463-.647.7-.968a270.488 270.488 0 0 1 26.4-30.673 266.768 266.768 0 0 1 377.263 0 267.042 267.042 0 0 1-91.568 437.254 16.583 16.583 0 0 1-2.48-6.067A260.278 260.278 0 1 0 63.809 243.372a263.609 263.609 0 0 0-27.436 32.247c-.23.319-.464.638-.693.958.2.341.4.671.6 1.018.529.878 1.079 1.775 1.656 2.7.844 1.35.4 2.641-.116 4.136a8.819 8.819 0 0 0-.685 3.478 4.744 4.744 0 0 0 .337 1.473c.268-.407.527-.82.8-1.226a253.962 253.962 0 0 1 31.7-38.615 251.491 251.491 0 1 1 269.98 411.962 62.941 62.941 0 0 0-3.73-5.566A245 245 0 1 0 74.61 254.172a247.18 247.18 0 0 0-31.827 39.068c-.2.3-.394.6-.592.908.321.205.634.391.936.554a18.743 18.743 0 0 0 3.578 1.433 20.047 20.047 0 0 1 2.67.983q.468.22.964.509c.2-.3.393-.609.594-.912a238.6 238.6 0 0 1 29.845-36.373 236.216 236.216 0 1 1 249.851 388.367l-1.073.4q.358.438.722.891l1.072-.4A237.355 237.355 0 1 0 80.01 259.573a239.627 239.627 0 0 0-30.039 36.629 20.4 20.4 0 0 0-2.941-1.1 18.083 18.083 0 0 1-3.311-1.306 246.189 246.189 0 0 1 31.658-38.852A243.854 243.854 0 1 1 335.555 655.03c-.352.136-.707.26-1.059.393.228.306.453.608.673.909a65.011 65.011 0 0 1 3.763 5.579l.147.251a8 8 0 0 1 .346.722c.332-.129.661-.267.993-.4A252.635 252.635 0 1 0 69.21 248.771a255.278 255.278 0 0 0-30.728 37.151c.108-.378.238-.756.369-1.137.555-1.612 1.13-3.277.011-5.066a198.208 198.208 0 0 1-1.884-3.082 262.423 262.423 0 0 1 27.6-32.5 259.128 259.128 0 1 1 277.57 424.715c-.341.134-.679.276-1.021.407.081.354.164.71.252 1.066a17.925 17.925 0 0 0 2.457 6.079 8.368 8.368 0 0 0 .718.885c.37-.142.735-.3 1.1-.441a267.981 267.981 0 0 0 91.552-438.88"/><path d="M4.698 230.847c-.114-.314-.228-.63-.346-.963l-.085-.235c-.268.329-.529.663-.8.993.146.407.292.8.439 1.189.264-.328.524-.657.789-.984"/><path d="M3.478 219.392c-.439.247-.843.474-1.189.7q-.582.686-1.158 1.375a2.677 2.677 0 0 0 .2 1.443c1.257-1.51 2.514-3.021 3.8-4.511-.572.379-1.138.7-1.659.991"/><path d="M1.335 222.912a2.689 2.689 0 0 1-.2-1.443c-.338.4-.681.8-1.017 1.206a6.623 6.623 0 0 0 .437 1.169c.258-.312.525-.619.784-.931"/><path d="M3.481 219.392c.52-.291 1.086-.611 1.659-.991a312.391 312.391 0 0 1 3.8-4.291 19.953 19.953 0 0 0 1.279-3.049c-.73.8-1.449 1.61-2.17 2.416a15.62 15.62 0 0 1-.726 1.276 9.192 9.192 0 0 1-2.9 2.82c-.72.833-1.42 1.681-2.131 2.521.346-.228.751-.455 1.189-.7"/><path d="M12.614 198.977q.16-.934.339-1.9-.678.692-1.353 1.387c-.111.644-.215 1.269-.315 1.879.44-.457.887-.907 1.329-1.362"/><path d="M524.976 590.138a4.736 4.736 0 0 0-.475-1.342c-.229.391-.455.785-.686 1.176q-7.9 13.353-17.13 25.975c-.43.163-.83.307-1.183.425-3.771 1.258-10.435 4.513-11.491 8.737-.539 2.154.452 3.492 1.5 4.909l.138.188q-10.054 12.238-21.406 23.6a321.96 321.96 0 0 1-66.936 51.384c-.409.236-.813.48-1.224.714.47.175.919.33 1.353.469a11.006 11.006 0 0 0 6.968.135 17.941 17.941 0 0 1 5.75-.419l.481.017a13.577 13.577 0 0 0 2.146-.047 3.086 3.086 0 0 0 2.638-1.689l.008-.011a3.389 3.389 0 0 1 2.145-1.4 29.16 29.16 0 0 1 3.113-.7c2.354-.444 5.02-.948 7.078-2.32.917-.611 2.309-1.463 3.921-2.449 5.817-3.559 14.609-8.937 17.562-13 1.8-2.479 4.276-4.047 6.669-5.563s4.674-2.965 5.9-5.165a136 136 0 0 1 10.207-15.435 16.117 16.117 0 0 1 3.057-3.131 2.8 2.8 0 0 1 .4-.224 10.891 10.891 0 0 1 3.037-.627c2.525-.281 5.387-.6 6.1-4.888a25.542 25.542 0 0 1 2.145-6.272c.232-.521.457-1.036.674-1.551a21.118 21.118 0 0 0 1.008-2.883c-.649.768-1.286 1.544-1.944 2.308q-5.86 6.8-12.135 13.316-1.579 1.644-3.188 3.266c-.512.519-1.01 1.048-1.526 1.564a330.952 330.952 0 0 1-52.557 42.773 4.524 4.524 0 0 0-2.422 1.577 2.86 2.86 0 0 0-.217.325 2.168 2.168 0 0 1-2.045 1.132 19.041 19.041 0 0 1-2.2-.013 19.151 19.151 0 0 0-6.082.457 9.869 9.869 0 0 1-5.383.154 323.1 323.1 0 0 0 66.275-51.037q11.277-11.277 21.285-23.448c.24-.292.476-.589.715-.882-.212-.307-.424-.6-.626-.872l-.033-.043c-.99-1.338-1.7-2.319-1.289-3.957.855-3.417 6.634-6.525 10.5-7.867.094-.034.194-.071.287-.1.031-.01.618-.21 1.547-.58 4.208-1.677 15.531-6.9 15.065-14.353a16.245 16.245 0 0 1 1.476-7.107c.707-1.84 1.354-3.537 1.044-5.224m-29.9 54.167a21.8 21.8 0 0 0-1.542 4.974c-.579 3.478-2.6 3.7-5.149 3.986-.556.062-1.122.125-1.68.228q4.288-4.523 8.372-9.189m-17.957 18.878c-2.9 4.283-5.513 8.705-6.262 10.051-1.088 1.958-3.245 3.326-5.528 4.775a23.92 23.92 0 0 0-6.964 5.842c-2.826 3.885-11.506 9.2-17.251 12.709-1.622.992-3.022 1.849-3.957 2.472-1.874 1.249-4.426 1.731-6.676 2.157l-.276.053a331.958 331.958 0 0 0 46.914-38.059m45.8-68.21a17.136 17.136 0 0 0-1.546 7.564c.351 5.617-7.437 10.282-12.78 12.627q8.151-11.269 15.275-23.127a17.845 17.845 0 0 1-.949 2.936"/><path d="M581.649 384.146A336.673 336.673 0 0 0 247.808 90.783a334.286 334.286 0 0 0-234.165 94.838l-.842.821a5.651 5.651 0 0 1 .308 1.216c.31-.3.619-.6.929-.906a335.46 335.46 0 0 1 471.006 3.382 332.965 332.965 0 0 1 95.689 195.339l-.335.487c-2.816 4.1-3.876 5.151-5.5 6.277A328.988 328.988 0 0 0 247.808 98.42 326.8 326.8 0 0 0 15.2 194.767c-.761.761-1.5 1.54-2.252 2.308q-.179.969-.339 1.9c1.117-1.149 2.223-2.306 3.359-3.442a327.862 327.862 0 0 1 463.67 0 325.372 325.372 0 0 1 94.234 197.382c.042.405.093.808.135 1.213l.472-.312c.191-.125.37-.244.545-.361 1.9-1.265 2.987-2.174 5.891-6.348.123-.176.242-.346.371-.534l.571-.83c-.066-.534-.147-1.066-.215-1.6"/><path d="M538.573 427.371a290.762 290.762 0 0 0-290.765-290.764 288.864 288.864 0 0 0-205.6 85.162 295.12 295.12 0 0 0-26.7 30.68c-.234.31-.472.616-.7.925a8.741 8.741 0 0 1 1.088.364 1.845 1.845 0 0 1 1.081.854c.2.513-.078 1.308-.819 2.367-1.231 1.757-1.544 3.188-.932 4.252a3.479 3.479 0 0 0 2.243 1.456 8.991 8.991 0 0 0 1.174.231 21.5 21.5 0 0 0 4.5.016 6.769 6.769 0 0 1 3.241.47 6.165 6.165 0 0 1 .976.512c.217-.291.443-.577.661-.868a278.377 278.377 0 0 1 25.752-29.689 274.4 274.4 0 0 1 388.065 0 274.684 274.684 0 0 1-90.825 448.43c-.343.139-.687.275-1.031.412.2.315.38.633.544.954 1.274 2.489 1.5 5.03 1.068 5.9-.245.49-1.415.627-2.448.749-1.416.166-2.882.338-3.654 1.323a2.257 2.257 0 0 0-.446 1.153 3.258 3.258 0 0 0 0 .8c.013.109.049.228.066.338.343-.125.685-.255 1.029-.382A283.189 283.189 0 1 0 47.608 227.169a286.844 286.844 0 0 0-29.465 34.552c-1.282-.262-1.79-.709-1.987-1.051-.477-.831.216-2.138.881-3.088.974-1.392 1.283-2.5.942-3.381a2.607 2.607 0 0 0-1.42-1.347 294.037 294.037 0 0 1 26.414-30.316 289.676 289.676 0 0 1 409.666 0 289.942 289.942 0 0 1-103.934 476.514c-.352.13-.7.263-1.053.391.212.306.464.6.7.9l1.064-.4a291.269 291.269 0 0 0 189.157-272.572m-192.223 264.4a3.506 3.506 0 0 1 2.228-.828c-.74.282-1.485.552-2.228.828M48.373 227.938a282.038 282.038 0 0 1 398.865 0 282.318 282.318 0 0 1-94.609 461.412c.564-1.372.244-4.05-1.075-6.629a275.553 275.553 0 1 0-298.546-450.15 279.487 279.487 0 0 0-25.949 29.917 7.778 7.778 0 0 0-4.015-.655 22.9 22.9 0 0 1-3.679.053 285.768 285.768 0 0 1 29.008-33.948"/><path d="M574.072 510.61c.068-.792.173-1.511.282-2.235a28.51 28.51 0 0 0 .4-5.26 39.784 39.784 0 0 0-.245-3.68c-.335-3.055-.807-6.089-1.263-9.024-.426-2.736-.835-5.39-1.091-7.826a35.456 35.456 0 0 1-.228-5.444q-.411 2.711-.868 5.412a325.227 325.227 0 0 1-13.566 52.918c-.643.378-1.3.756-1.973 1.133-.541.3-1.073.6-1.6.9-1.68.947-3.324 1.868-5.118 2.745a319.182 319.182 0 0 0 17.94-73.484c.054-.452.1-.9.15-1.357-.35-.338-.676-.667-.984-.989-2.726-2.85-3.88-5.17-3.547-8.488a3.5 3.5 0 0 1 1.913-2.966c1.449-.971 2.389-1.909 1.31-5.149-.581-1.743-.925-3.048-1.231-4.2a15.7 15.7 0 0 0-3.026-6.629 4.627 4.627 0 0 0-1.049-1.006 9.08 9.08 0 0 0-3.268-1.243c-1.157-.266-2.155-.5-2.5-1.2-.38-.761-.093-2.227.854-4.356 1.527-3.435 2.733-6.694 3.8-9.57.366-.988.713-1.924 1.048-2.8.342-.9.672-1.727 1-2.483a15.13 15.13 0 0 1 1.967-3.581 7.571 7.571 0 0 0 1.333-4.082 12.7 12.7 0 0 1 2.376-6.557 13.466 13.466 0 0 1 .991-1.165c-.041-.47-.078-.942-.121-1.412a321.336 321.336 0 0 0-319.95-291.474 319.211 319.211 0 0 0-227.2 94.11q-5.344 5.342-10.394 10.892a19.844 19.844 0 0 1-1.276 3.05q6.02-6.727 12.439-13.174a320.229 320.229 0 0 1 452.87 0 317.808 317.808 0 0 1 92.5 197.608 13.245 13.245 0 0 0-3.319 7.973 6.709 6.709 0 0 1-1.092 3.532 11.073 11.073 0 0 0-1.219 1.918 313.69 313.69 0 0 0-313.3-298.272 311.62 311.62 0 0 0-221.8 91.874 319.081 319.081 0 0 0-21.74 24.079l.085.233c.119.335.234.651.348.965a317.935 317.935 0 0 1 22.076-24.51 312.587 312.587 0 0 1 442.068 0 310.337 310.337 0 0 1 91.263 207.8c-.623 1.475-1.262 3.189-1.969 5.1-1.059 2.861-2.259 6.1-3.772 9.506-.219.494-.4.944-.551 1.372.009-.913.034-1.825.034-2.738a306.038 306.038 0 0 0-306.051-306.044 304.04 304.04 0 0 0-216.4 89.636 311.253 311.253 0 0 0-22.35 24.917q-.393.487-.781.975l-.134.165a4.87 4.87 0 0 0-2.805 3.562 4.814 4.814 0 0 0 .051 1.467l.036.212c.108.6.205 1.182.3 1.729.425 2.57.779 4.679 1.9 6.209a5.276 5.276 0 0 0 .746.823q.324-.44.652-.878a301.562 301.562 0 0 1 28.556-33.013 297.313 297.313 0 0 1 420.467 0 297.629 297.629 0 0 1-102.475 487.5l-1.3.5a8.076 8.076 0 0 1 1.159.726c.384-.149.765-.31 1.149-.459A298.472 298.472 0 1 0 36.806 216.369a302.649 302.649 0 0 0-28.493 32.913c-.824-1.3-1.131-3.092-1.524-5.464a97.55 97.55 0 0 0-.336-1.958 3.46 3.46 0 0 1 2.395-3.978q.674-.847 1.355-1.691a310.262 310.262 0 0 1 21.97-24.454 304.954 304.954 0 0 1 431.268 0 305.49 305.49 0 0 1 59.725 347.026c-.837.3-1.672.572-2.469.834-1.144.376-2.223.729-3.162 1.1-2 .8-3.16 1.732-3.641 2.93-.681 1.694 0 3.8 1.491 7.078a11.236 11.236 0 0 1 .657 2 307.265 307.265 0 0 1-154.88 137.922c-.432.173-.865.348-1.3.519a4.088 4.088 0 0 0 1.325.64 5.731 5.731 0 0 0 1.6.214 12.772 12.772 0 0 0 2.875-.387 27.86 27.86 0 0 1 7.492-.8 29.14 29.14 0 0 0 9.826-1.428c.116-.034.227-.064.345-.1a31.191 31.191 0 0 0 8.225-3.918c2.177-1.37 3.717-2.332 5.963-2.206.528-.288 1.054-.58 1.579-.87a316.887 316.887 0 0 0 120.155-117.5l.6-1.034a9.676 9.676 0 0 1-.627-1.082c-.211.367-.428.731-.641 1.1a315.8 315.8 0 0 1-121.333 118.293c-2.418-.038-4.135 1.033-6.272 2.379a30.211 30.211 0 0 1-7.959 3.8 28.235 28.235 0 0 1-9.854 1.482 28.828 28.828 0 0 0-7.747.83 13.55 13.55 0 0 1-1.968.328 308.425 308.425 0 0 0 152.926-136.526c.275-.5.554-1 .825-1.5a14.723 14.723 0 0 0-.413-1.5 11.27 11.27 0 0 0-.408-1.1c-1.369-3.007-2.008-4.892-1.473-6.224.363-.9 1.327-1.643 3.036-2.328.908-.363 1.971-.711 3.1-1.081.475-.155.962-.317 1.455-.483s.97-.332 1.459-.512c3.932-1.437 7.9-3.473 9.156-7.549 1.148-3.732 2.075-5.217 4.159-6.288a13.362 13.362 0 0 1 1.415-.613c.181-.446.358-.894.537-1.342a312.656 312.656 0 0 0 22.038-105.055 15.228 15.228 0 0 1 2.045 5.106 65.315 65.315 0 0 0 1.25 4.263c.9 2.707.19 3.182-.885 3.9a4.55 4.55 0 0 0-2.388 3.76c-.394 3.943 1.115 6.638 4.475 9.987a318.036 318.036 0 0 1-18.357 75.1c-.178.471-.345.947-.527 1.417q.714-.3 1.389-.617c2.226-1.03 4.185-2.124 6.193-3.257.529-.3 1.059-.6 1.6-.895.294-.163.6-.336.906-.512q.7-.4 1.437-.837c.188-.538.37-1.076.555-1.615a326.219 326.219 0 0 0 12.571-48.353c.2 1.411.427 2.865.657 4.34.455 2.922.925 5.944 1.257 8.976a28.635 28.635 0 0 1-.153 8.658c-.109.72-.212 1.435-.282 2.214q-2.211 8.719-4.894 17.286-.327 1.046-.661 2.089a38.734 38.734 0 0 0 1.608-1.478c3.537-3.456 5.99-7.356 5.371-11.279a25.594 25.594 0 0 1-.349-6.432m-36.228 33.732c-3.051 1.219-4.327 2.7-5.78 7.426-1 3.258-4.108 5.111-7.417 6.436a304.625 304.625 0 0 0 29.112-123.813 4.932 4.932 0 0 0 3 1.4 6.371 6.371 0 0 1 3.461 1.577 311.647 311.647 0 0 1-22.376 106.974m31.972-18.454c1.139-3.74 2.2-7.507 3.2-11.291.069.782.168 1.633.324 2.614.414 2.617-.834 5.573-3.528 8.677"/><path d="M594.674 367.833A352.042 352.042 0 0 0 247.809 75.508a349.325 349.325 0 0 0-236.94 91.738c-.267.244-.53.5-.8.741a7.9 7.9 0 0 1 .576.948 4.075 4.075 0 0 1 .327 3.248 10.5 10.5 0 0 1-1.336 2.653c-.866 1.326-1.314 2.221-.483 4.5q.181.494.446 1.083c.277-.268.55-.542.828-.808a343.119 343.119 0 0 1 480.016 5.13 340.571 340.571 0 0 1 96.773 191.71c.075.505.135 1.012.207 1.518.305-.405.617-.811.931-1.218-.072-.493-.152-.985-.226-1.478A344.367 344.367 0 0 0 247.809 83.146a341.839 341.839 0 0 0-237.795 95.342 2.966 2.966 0 0 1 .534-3.064 11.547 11.547 0 0 0 1.455-2.9 5.183 5.183 0 0 0-.538-4.352 350.767 350.767 0 0 1 484.379 11.16 348.194 348.194 0 0 1 97.884 189.456c.074.445.141.894.214 1.34.314-.332.629-.653.945-.973-.073-.442-.138-.886-.213-1.327"/><path d="m281.972 4.034-.164-.2h-8.61c-.4 0-.8-.476-1.3-1.08a8.3 8.3 0 0 0-2.181-1.985 6.469 6.469 0 0 0-4.5-.64c-.693.116-1.317.239-1.893.368a17.39 17.39 0 0 0-6.534 2.761c-.338.216-.679.434-1.043.654-1.212.727-2.777.424-4.289.134a7.342 7.342 0 0 0-2.988-.2c-.587.151-1.574-.394-2.529-.919-1.552-.852-3.313-1.817-4.662-.613l-.546.493c-1.147 1.045-2.569 2.349-3.51 2.247a.97.97 0 0 1-.71-.474c-.215-.3-.418-.609-.618-.917-.741-1.139-1.441-2.216-2.548-2.29a3.041 3.041 0 0 0-2.325 1.341c-.463.538-.926 1.134-1.39 1.73a20.644 20.644 0 0 1-2.452 2.816 2.729 2.729 0 0 1-1.364.73 1.293 1.293 0 0 1-1-.332 8.714 8.714 0 0 0-.337-.255c-2.45-1.811-6.928-3.7-8.9-3.4a10.369 10.369 0 0 1-2.6-.438c-2.985-.7-7.494-1.774-10.681.577-4.125 3.041-5.834 4.3-10.243 3.862-1.108-.11-2.12-.264-3.1-.413-3.063-.465-5.707-.865-8.914.541a57.3 57.3 0 0 0-9.013 5.607c-.4.294-.724.537-.925.689a16.146 16.146 0 0 0-1.009-.335c-1.922-.569-5.548-1.269-8.036.508-.683.488-1.322 1-1.925 1.5a63.325 63.325 0 0 0-1.714 1.49l-.353.316a12.049 12.049 0 0 1-2.825 2.185 7.622 7.622 0 0 1-2.562 0 25.04 25.04 0 0 0-4.7-.067c-.177.016-.343.021-.526.042a10.65 10.65 0 0 1-3.2-.014 32.642 32.642 0 0 0-.558-.07 16.008 16.008 0 0 0-4.607.22c-1.241.193-2.336.441-3.3.659-3.13.7-5.2 1.172-8.906-.611a117.09 117.09 0 0 1-2.788-1.4l-.2-.1c-.494-.253-.96-.488-1.409-.709-2.452-1.206-4.352-1.868-6.666-1.207l-.206.059c-3.237.923-3.828 1.182-5.7 4.889a6.187 6.187 0 0 0-.194.431 7.074 7.074 0 0 0-.412 1.29 12.756 12.756 0 0 0-.22 2.462 6.221 6.221 0 0 1-2.208 5.343c-.172.156-.331.311-.532.472a24.407 24.407 0 0 1-2.584 1.815 28.672 28.672 0 0 1-4.621 2.21 35.133 35.133 0 0 0-4.32 1.969l-1.2.664c-3.923 2.156-7.98 4.387-10.569 7.839-.743.989-1.451 1.879-2.11 2.707-.42.527-.817 1.027-1.193 1.513-.471.61-.9 1.2-1.29 1.777q.989-.45 1.981-.893c2.671-1.2 5.349-2.376 8.05-3.519A409.294 409.294 0 0 1 247.809 15.5q13.908 0 27.67.913 1.124.075 2.248.153a8.37 8.37 0 0 0-1.454-.951 32.597 32.597 0 0 1-.468-.268c-.63-.041-1.259-.089-1.89-.128q-12.986-.8-26.106-.8A410.368 410.368 0 0 0 87.065 46.862c-2.082.881-4.144 1.8-6.208 2.713a111.62 111.62 0 0 0 2.063-2.647c2.449-3.264 6.4-5.437 10.224-7.537l1.206-.666a33.908 33.908 0 0 1 4.192-1.909 25.591 25.591 0 0 0 7.482-4.174c.16-.128.307-.255.452-.381q17.923-6.422 36.292-11.164l.338.043a11.69 11.69 0 0 0 3.48.016 22.662 22.662 0 0 1 4.992.028 8.028 8.028 0 0 0 3-.052 11.625 11.625 0 0 0 3.208-2.41 76.56 76.56 0 0 1 1.819-1.6q4.7-1.005 9.415-1.9c.577.179.941.327.955.332l.291.121.249-.191c.014-.011.373-.286.954-.714a419.206 419.206 0 0 1 52.673-6.254 2.4 2.4 0 0 0 1.805.56 3.421 3.421 0 0 0 1.629-.74q10.078-.474 20.233-.48 16.471 0 32.738 1.254c.563.043 1.125.09 1.688.136a3.5 3.5 0 0 0 .819-1.024 2.643 2.643 0 0 0 .218-.6c.24-1.052-.185-2.225-1.3-3.589M114.908 17.95l.207-.059a6.608 6.608 0 0 1 4.84.644q-4.91 1.536-9.788 3.192c1.47-2.841 1.913-2.969 4.741-3.778m-6.894 12.607A7.619 7.619 0 0 0 109.172 26a9.49 9.49 0 0 1 .389-2.917q5.894-2.019 11.833-3.866c.377.19.773.393 1.2.61.843.432 1.77.91 2.813 1.411 4.051 1.947 6.508 1.392 9.617.691a75.533 75.533 0 0 1 1.921-.411q-14.6 3.985-28.927 9.035m53.512-14.946c.054-.039.1-.08.157-.118a6.69 6.69 0 0 1 4.649-.855q-2.406.472-4.806.973m12.012-2.321a46.992 46.992 0 0 1 6.935-4.152c2.916-1.279 5.3-.92 8.313-.463.992.151 2.017.307 3.153.419 4.828.481 6.889-1.041 11.049-4.107 2.728-2.012 6.944-1.016 9.733-.355a9.55 9.55 0 0 0 3.023.455c1.307-.21 4.529.974 6.932 2.426a420.522 420.522 0 0 0-49.138 5.777M282.213 7.38a1.78 1.78 0 0 1-.4.743q-16.887-1.342-34-1.352-9.541 0-19.015.427c.565-.622 1.125-1.342 1.7-2.08.452-.582.9-1.163 1.355-1.689.565-.656 1.056-.984 1.429-.966.565.037 1.147.932 1.711 1.8.209.321.423.651.648.962a2.055 2.055 0 0 0 1.479.915c1.416.161 2.91-1.21 4.352-2.523l.538-.487c.726-.644 1.823-.119 3.417.755 1.191.654 2.316 1.269 3.315 1.021a6.712 6.712 0 0 1 2.518.206c1.634.315 3.485.671 5.054-.268.374-.224.723-.449 1.07-.67a17.823 17.823 0 0 1 8.015-2.974 5.276 5.276 0 0 1 5.662 2.253c.633.754 1.232 1.466 2.136 1.466h8.092a3.176 3.176 0 0 1 .923 2.46"/><path d="M670.302 511.847c-1.382-1.244-1.8-1.9-2-2.873a13.757 13.757 0 0 1-.18-1.4c-.055-.6-.125-1.3-.254-2.158q-.329 1.786-.673 3.567-2.672 13.812-6.256 27.415c-.242.008-.475.018-.743.018a1.724 1.724 0 0 0-1.277.534c-1.183 1.213-1.1 4.285-1 8.174.017.666.028 1.344.039 2.018.02 1.251.025 2.5-.042 3.708-.007.124-.022.226-.031.344q-.819 2.719-1.678 5.426c-.224.339-.453.658-.682.971a10.068 10.068 0 0 0-1.762 3.224c-.967 3.218-6.213 19.715-8.319 23.927a58.128 58.128 0 0 0-3.006 9.219c-1.3 4.939-2.4 10.126-2.614 11.837a34.067 34.067 0 0 1-2.317 7.26c-.281.708-.551 1.387-.785 2.014-.742 1.975-.881 2.343-5.01 2.228-.363-.01-.765-.025-1.191-.041-.694-.027-1.467-.062-2.353-.1-3.517-.163-4.742.489-5.566 1.323q6.846-13.424 12.759-27.393a416.557 416.557 0 0 0 27.646-95.957c.086-.534.166-1.071.251-1.606-.3-.434-.607-.853-.906-1.236l-.239 1.526a415.415 415.415 0 0 1-27.753 96.85q-6.453 15.259-14.056 29.863c-.251.484-.508.964-.761 1.447a7.833 7.833 0 0 0 1.562-.634 5.967 5.967 0 0 0 1.8-1.568c.8-.95 1.42-1.694 5.211-1.529.683.03 1.295.058 1.874.081q.634.026 1.19.043c4.809.153 5.551-.236 6.556-2.913.232-.62.5-1.292.778-1.993a34.757 34.757 0 0 0 2.385-7.527c.361-2.889 3.5-16.68 5.514-20.7 2.138-4.275 7.417-20.867 8.388-24.1a9.065 9.065 0 0 1 1.6-2.895 11.723 11.723 0 0 0 2.6-7.325c.066-1.186.065-2.4.047-3.623-.011-.733-.024-1.467-.042-2.19a247.27 247.27 0 0 1-.034-1.462c-.052-2.687 0-5.176.728-5.926a.645.645 0 0 1 .5-.206h.454c.347 0 .731-.014 1.135-.043 1.906-.142 4.175-.741 4.175-3.282 0-.754.07-1.584.142-2.462a18.683 18.683 0 0 0-.159-6.02 1.863 1.863 0 0 1-.05-.277 6.406 6.406 0 0 1 1.008.285c.955.323 2.035.686 2.829.185a1.786 1.786 0 0 0 .75-1.394 19.939 19.939 0 0 1 .642-2.78c.9-3.256 2.018-7.31-.819-9.863m-5.284 19.775c-.076.9-.147 1.754-.147 2.552 0 1.284-.8 1.928-2.792 2.147q1.437-5.469 2.725-10.974a2.42 2.42 0 0 0 .084.607 17.611 17.611 0 0 1 .13 5.667m5.056-10.2a20.784 20.784 0 0 0-.676 2.95.789.789 0 0 1-.253.6c-.356.225-1.248-.077-1.9-.3-.88-.294-1.64-.553-2.139-.093a.844.844 0 0 0-.191.292q1.626-6.978 3.015-14.01a9.993 9.993 0 0 0 1.643 1.8c2.337 2.1 1.317 5.8.5 8.765"/><path d="M656.385 487.883c.054-.373.106-.746.161-1.12a2.469 2.469 0 0 0-1.069-.2 1.747 1.747 0 0 0-.328.021c-.839.191-1.426.938-1.747 2.22a46.739 46.739 0 0 0-1.121 6.15c-.088.706-.163 1.313-.277 1.88-.063.316-.115.688-.169 1.076-.127.9-.34 2.418-.787 2.618-.126.055-.359-.02-.645-.211a4.757 4.757 0 0 0-3.678-.658c-.075.017-.152.016-.226.037a4.064 4.064 0 0 0-.957.4 2.131 2.131 0 0 0-.739.646 4.22 4.22 0 0 1-.481-.053 2.628 2.628 0 0 0-2.006.269 2.131 2.131 0 0 0-.757 1.476 14.726 14.726 0 0 0 .676 4.255 28 28 0 0 1 .937 5.434q-.205.961-.417 1.918a1.144 1.144 0 0 1-.756.464c-.757.138-1.391.234-1.934.317-2.21.337-3.125.477-4.65 2.306l-.1.125a18.285 18.285 0 0 1-1.525 1.686 16.634 16.634 0 0 1-3.438 2.239c-3.242 1.8-3.995 2.558-4.746 4.06a.889.889 0 0 1-.173.219 4.333 4.333 0 0 1-1.328.756c-.113.431-.231.86-.345 1.29a386.7 386.7 0 0 1-17.55 51.275 391.98 391.98 0 0 1-6.557 14.605 82.184 82.184 0 0 1-.554-1.292 7.793 7.793 0 0 1-.423-5.481 18.854 18.854 0 0 0 .465-4.055c0-2.721 1.357-3.763 2.669-4.772a6.546 6.546 0 0 0 1.9-1.925 20.419 20.419 0 0 1 3.213-3.675 31.225 31.225 0 0 0 3.253-3.581c1.2-1.681.432-4.087-.247-6.211a9.178 9.178 0 0 1-.7-3.426 7.287 7.287 0 0 0-.78-4.14q4.578-12.937 8.2-26.127c.1-.35.187-.7.281-1.05a10.046 10.046 0 0 1-1-.253l-.94-.3c-1.57-.522-3.052-1.018-4.111-.415a2.114 2.114 0 0 0-.987 1.469 17.288 17.288 0 0 1-1.838 4.512 10.1 10.1 0 0 0-.943 2.086.663.663 0 0 1-.142.229 8.9 8.9 0 0 1-1.14.991l-.361.285c-1.547 1.231-3.514 3.029-2.517 5.774a8.519 8.519 0 0 1 .328 1.143 9.8 9.8 0 0 1 .139 2.65l-.021.486a6.626 6.626 0 0 0 1.359 4.549 31.641 31.641 0 0 1 2.575 4.17 10.3 10.3 0 0 1 .558 1.374 5.41 5.41 0 0 1 .254 2.42 9.757 9.757 0 0 0 .742 3.909c.631 1.972 1.283 4.011.4 5.247a30.321 30.321 0 0 1-3.137 3.444 20.949 20.949 0 0 0-3.4 3.919 5.7 5.7 0 0 1-1.612 1.589 7.893 7.893 0 0 0-2.4 2.574 5.48 5.48 0 0 0-.242.554 6.726 6.726 0 0 0-.447 2.506 17.931 17.931 0 0 1-.444 3.842 8.861 8.861 0 0 0 .487 6.112c.319.767.638 1.491.948 2.177.2.452.4.886.6 1.294l.6-1.286q3.636-7.659 6.97-15.491a387.773 387.773 0 0 0 17.814-52.221 3.34 3.34 0 0 0 1.554-1.257c.6-1.212 1.133-1.837 4.3-3.6 1.115-.62 1.884-1.068 2.5-1.485a393.774 393.774 0 0 1-20.131 61.108q-5.427 12.831-11.707 25.177-.466.916-.935 1.827a9.307 9.307 0 0 0 .38 1.61 6.374 6.374 0 0 0 .635 1.367 28.708 28.708 0 0 0 3.645 4.549q.4.412.81.792l.531-1.008q7.947-15.106 14.671-30.927a402.056 402.056 0 0 0 22.495-70.685 4.453 4.453 0 0 0 .48-2.21q1.212-5.686 2.255-11.409a2.689 2.689 0 0 1 .275-.1 3.709 3.709 0 0 1 3.015.477 1.716 1.716 0 0 0 1.692.3c1-.448 1.21-1.978 1.418-3.457.051-.367.1-.717.16-1.016.118-.592.2-1.223.29-1.958a45.492 45.492 0 0 1 1.1-6.02c.139-.554.4-1.213.86-1.384a407.81 407.81 0 0 1-28 100.01q-7.022 16.6-15.426 32.41c-.206.391-.408.783-.616 1.173a2.4 2.4 0 0 0 .786.836c.175-.326.343-.654.516-.981q8.558-16.1 15.74-33.015a408.859 408.859 0 0 0 28.07-100.228m-51.564 50.419c-.306.992-.623 1.979-.938 2.967a3.062 3.062 0 0 1 .938-2.967m3 15.3c-.572-1.024-1.292-2.13-2.169-3.383a5.828 5.828 0 0 1-1.144-4.357 11.32 11.32 0 0 0-.106-2.633 370.1 370.1 0 0 0 2.005-6.338l.1-.076c.844-.661 1.51-1.182 1.667-1.813a9.571 9.571 0 0 1 .847-1.838 18.235 18.235 0 0 0 1.941-4.789 1.07 1.07 0 0 1 .462-.76 1.255 1.255 0 0 1 .618-.131 9.682 9.682 0 0 1 2.614.633c.334.111.671.22 1.007.321q-3.478 12.732-7.838 25.163m12.459 31.114q-6.611 15.632-14.476 30.547a27.02 27.02 0 0 1-3.271-4.122 6.242 6.242 0 0 1-.8-2.2q6.727-13.112 12.514-26.771a394.621 394.621 0 0 0 20.512-62.676c.441-.44.886-.959 1.482-1.675 1.262-1.513 1.837-1.6 3.98-1.927.552-.085 1.2-.182 1.965-.323a2.384 2.384 0 0 0 .237-.066 400.993 400.993 0 0 1-22.15 69.216m23.57-75.835a74.823 74.823 0 0 0-.556-2.451 15.216 15.216 0 0 1-.656-3.849 1.123 1.123 0 0 1 .333-.759 1.8 1.8 0 0 1 1.2-.064 2.4 2.4 0 0 0 1.072 0q-.663 3.571-1.391 7.128"/><path d="M512.814 162.364a372.733 372.733 0 0 0-160.921-95.176 89.676 89.676 0 0 0 13.646.84c2.436 0 4-.552 4.777-1.686.049-.072.074-.151.116-.225a379.773 379.773 0 0 1 147.016 91.616 386.348 386.348 0 0 1 39.36 46.089c.9 1.245 1.817 2.484 2.706 3.738-.19-.462-.385-.94-.588-1.445-.348-.859-.722-1.779-1.125-2.734a73.987 73.987 0 0 0-1.991-4.358 37.206 37.206 0 0 1-2.133-5.269c-1.048-3.128-1.574-4.7-6.951-7.051-5.336-2.334-7.2-10.335-7.784-17.256-.051-.6-.091-1.195-.125-1.777-.385-.43-.761-.866-1.148-1.294q-6.822-7.561-14.052-14.814a388.755 388.755 0 0 0-123.984-83.589q-15.047-6.365-30.48-11.391c.042-.918.18-1.916.356-3.178.088-.632.185-1.323.28-2.094a2.214 2.214 0 0 1 .585-1.22q16.095 5.235 31.808 11.846a395 395 0 0 1 121.22 80.265 8.287 8.287 0 0 0 .311 1.539c.893 2.978 2.76 3.406 5.121 3.948l.2.046q4.713 4.741 9.238 9.624c.314.338.629.673.942 1.011.075-.472.148-.928.209-1.37.415-3.028.232-5.386-3.763-7.846a19.147 19.147 0 0 0-6.073-2.405l-.508-.117a24.075 24.075 0 0 1-1.535-.386 3.59 3.59 0 0 1-2.736-2.672c-.016-.052-.037-.091-.053-.144a6.946 6.946 0 0 1-.3-1.72 8.726 8.726 0 0 1 .269-2.31c.377-1.757.732-3.417-1.94-6.385a26.45 26.45 0 0 1-3.007-4.719c-.454-.844-.922-1.754-1.4-2.708-.713-.641-1.432-1.273-2.148-1.907A403.237 403.237 0 0 0 405.58 53.899q-10.96-4.635-22.115-8.595a28.382 28.382 0 0 1 13.867 1.792 18.206 18.206 0 0 1 4.235 2.734 13.162 13.162 0 0 0 7.514 3.343c3.517.5 6.48 2.27 8.86 3.69 2.06 1.231 3.548 2.117 4.78 1.872a21.684 21.684 0 0 1 5.358.568 57.571 57.571 0 0 0 6.486.86 409.023 409.023 0 0 1 74.503 48.758c.721.593 1.433 1.2 2.151 1.8-.441-.874-.875-1.715-1.3-2.511a34.04 34.04 0 0 0-3.357-5.344c-1.563-1.876-3.142-3.455-4.536-4.848-2.777-2.777-4.971-4.971-5.558-7.9-.051-.258-.1-.525-.154-.787l-.3-1.561c-.6-3.234-1.138-6.528-1.361-8.546a88.74 88.74 0 0 1 1.039 2.988c1.485 4.44 2.767 8.274 7.533 9.467a22.093 22.093 0 0 1 3.715 1.308c2.147.935 2.962 1.108 4.586-1.7.064-.111.128-.218.2-.34.121-.218.235-.416.349-.616.519-.908.97-1.639 1.341-2.24a12.7 12.7 0 0 0 1.769-3.636c.1-.352.175-.749.247-1.18-.326-.254-.658-.5-.985-.755a433.022 433.022 0 0 0-37.617-26.1c1.805-.852 2.918-.014 5.179 1.7a39.624 39.624 0 0 0 5.788 3.8c4.671 2.472 8.137 1.949 11.456 1.346q7.279 5.036 14.365 10.357c.452.34.9.69 1.347 1.032q-.142-.8-.32-1.614c-1.132-5.14-3.4-10.393-7.463-11.206a19.237 19.237 0 0 0-7.679.281l-.1.017c-.478.087-.951.173-1.426.251a13.862 13.862 0 0 1-9.677-1.425 38.841 38.841 0 0 1-5.638-3.707c-2.547-1.934-4.121-3.116-6.886-1.491a11 11 0 0 0-.989.663c.332.2.66.414.992.618a431.536 431.536 0 0 1 38.459 26.679 10.907 10.907 0 0 1-1.748 3.789 74.457 74.457 0 0 0-1.286 2.14q-7.85-6.139-15.957-11.9c-.505-.36-1.021-.7-1.528-1.058q-11.36-7.985-23.214-15.217c-.325-.2-.645-.405-.971-.6-.3.25-.608.489-.913.723-2.762 2.119-5.549 3.5-8.693 2.482a8.169 8.169 0 0 1-.886-.349 44.177 44.177 0 0 0-5.386-2q2.913 1.641 5.8 3.328a416.155 416.155 0 0 1 35.572 23.317c.118.617.244 1.258.381 1.941.651 3.254 2.947 5.55 5.854 8.458 1.377 1.378 2.938 2.938 4.469 4.777a22.606 22.606 0 0 1 1.918 2.817 410.024 410.024 0 0 0-70.752-46.221c-.682-.352-1.363-.7-2.046-1.051-.97-.042-2-.151-3.04-.294-1.194-.164-2.4-.369-3.551-.567-2.471-.424-4.6-.79-5.754-.562-.82.167-2.3-.719-4.01-1.74-2.463-1.47-5.529-3.3-9.264-3.833a12.1 12.1 0 0 1-6.985-3.113 19.344 19.344 0 0 0-4.467-2.877c-4.692-2.131-12.192-2.733-16.248-1.49a7.094 7.094 0 0 0-1.415.584c-.028.016-.065.029-.095.045.5.174 1.006.343 1.506.518q11.921 4.185 23.627 9.134a402.231 402.231 0 0 1 112.338 71.355 38.437 38.437 0 0 0 4.481 7.483c2.3 2.557 2.042 3.763 1.685 5.432a13.425 13.425 0 0 0-.26 1.51 396.059 396.059 0 0 0-120.793-79.746q-15.4-6.512-31.193-11.651c-.439-.144-.88-.285-1.32-.427a4.022 4.022 0 0 0-.833.872 3.21 3.21 0 0 0-.55 1.446c-.1.765-.192 1.45-.279 2.077-.159 1.137-.289 2.091-.346 2.985-.026.384-.035.761-.028 1.132l1.095.354q15.2 5 30.057 11.25a387.686 387.686 0 0 1 123.638 83.357q7.7 7.7 14.907 15.78a39.7 39.7 0 0 0 2.794 13.206q-10.606-12.587-22.333-24.353A381.154 381.154 0 0 0 396.662 75.01q-12.8-5.412-25.882-9.848c-.349-.118-.694-.247-1.042-.363a2.026 2.026 0 0 1-.318.929c-.008.011-.02.021-.027.032-.566.783-1.859 1.182-3.854 1.182-7.234 0-17.33-.374-21.476-3.6-3.236-2.515-8.038-2.635-11.546-2.721a29.166 29.166 0 0 1-3.1-.173c-1.117-.159-1.792-1.9-2.575-3.906a43.26 43.26 0 0 0-1.063-2.543q-.288-.619-.63-1.227a9.735 9.735 0 0 0-4.4-4.343 28.609 28.609 0 0 1-4.461-2.694 31.312 31.312 0 0 0-2.828-1.814 12.546 12.546 0 0 0-8.39-1.339c-.439.064-.89.14-1.364.24a25.621 25.621 0 0 0-6.509 2.341c-2.931 1.433-4.147 2.026-8.813-1.767a27.255 27.255 0 0 1-3.377-3.228c-.361-.412-.68-.8-.967-1.174a38.312 38.312 0 0 1-1.215-1.675c-1.47-2.118-2.281-3.281-5.6-2.378-3.9 1.062-7.835.589-8.239-.272-.106-.228.162-.769 1.269-1.544a11.83 11.83 0 0 1 3.245-1.514c1.024-.324 2.07-.564 3.054-.785l.4-.09c-1.191-.086-2.387-.146-3.581-.222-8.479-.534-17-.832-25.567-.832a395.2 395.2 0 0 0-154.8 31.252q-8.462 3.579-16.71 7.533c-.177-.339-.366-.674-.554-1.008a10.665 10.665 0 0 1-1.54-3.757 6.8 6.8 0 0 1-.023-1.479q8.045-3.825 16.277-7.326a401.716 401.716 0 0 1 157.353-31.765q16.424 0 32.637 1.3l1.184.1c-.127-.389-.27-.765-.429-1.124-.414-.034-.829-.068-1.244-.1q-15.968-1.246-32.148-1.253A402.781 402.781 0 0 0 90.038 53.899a415.368 415.368 0 0 0-15.588 7c-.418.2-.841.388-1.258.587a7.3 7.3 0 0 0-.124 1.262 7.98 7.98 0 0 0 .058 1.095A11.465 11.465 0 0 0 74.798 68c.187.331.355.64.513.938.18.344.335.67.463.982.329-.157.661-.31.991-.466q8.232-3.935 16.668-7.514a394.107 394.107 0 0 1 154.376-31.17c7.758 0 15.478.247 23.165.686a10.464 10.464 0 0 0-1.336.782c-1.491 1.044-2.04 2.017-1.628 2.895.887 1.893 6.137 1.777 9.508.858 2.58-.7 3.006-.088 4.422 1.95.2.288.421.6.657.929a397.414 397.414 0 0 0-34.788-1.549A387.6 387.6 0 0 0 95.984 67.973q-14.07 5.951-27.54 12.95c-1.11.575-2.214 1.16-3.317 1.745-.888.873-1.864 1.815-2.851 2.736-2.893 2.7-5.9 5.2-7.168 5.2a21.749 21.749 0 0 0-2.473.228c-.9.123-1.943.3-3.035.529-3.186.679-6.731 1.851-7.937 3.66a21.188 21.188 0 0 0-1.1 1.841 15.494 15.494 0 0 0-.814 1.786 21.416 21.416 0 0 0-.949 3.529c-.462 2.3-.859 4.293-4.69 5.144-.84.187-1.585.316-2.246.432-2.672.466-4.286.745-5.119 3.661a25.56 25.56 0 0 1-1.248 3.257 33.787 33.787 0 0 0-.871 2.119 12.465 12.465 0 0 0-.475 1.659 9.269 9.269 0 0 0-.211 1.931 15.95 15.95 0 0 0 .154 2.057c.216 1.744.315 2.539-2.257 4.468-.969.727-1.971 1.358-2.942 1.968-2.648 1.667-5.14 3.252-5.587 6.125-.009.056-.029.105-.037.163l-.125 1.051-.041.341c-.343 2.906-.633 4.729-2.89 6.61a22.8 22.8 0 0 1-2.019 1.459c-2.067 1.378-4.02 2.679-5.118 6.7a16.5 16.5 0 0 1-1.388 3.412l-.178.353a4.972 4.972 0 0 0-.656 2.091c-.02 1.063.592 2.181 2.362 3.952.485.487.983.957 1.48 1.418.268.25.535.494.8.737.267-.245.53-.5.8-.741a358.4 358.4 0 0 1 494.949 11.382 355.81 355.81 0 0 1 99.241 189.161c.07.389.148.774.216 1.164.127-.084.255-.18.382-.26.205-.128.4-.266.6-.4-.07-.388-.146-.773-.216-1.161A359.682 359.682 0 0 0 247.809 67.87 356.906 356.906 0 0 0 5.495 161.813a52.643 52.643 0 0 1-1.511-1.445c-2.355-2.356-2.328-3.107-1.6-4.6 67.4-61.043 153.841-94.447 245.421-94.447a366.274 366.274 0 0 1 359.4 296.1c.083.432.159.867.24 1.3q.471-.469.931-.941c-.083-.436-.158-.872-.242-1.308A367.381 367.381 0 0 0 247.809 60.233 364.445 364.445 0 0 0 3.56 153.278a14.861 14.861 0 0 0 .565-1.663c.991-3.633 2.7-4.77 4.673-6.087A23.935 23.935 0 0 0 10.911 144c2.678-2.233 2.944-4.509 3.314-7.659l.09-.755c66.051-53.064 147.552-81.9 233.5-81.9a373.938 373.938 0 0 1 365.904 297.362c.084.406.175.81.256 1.216.312-.27.626-.535.944-.79-.08-.4-.167-.787-.249-1.182a372.179 372.179 0 0 0-101.856-187.928m33.477 25.335c4.935 2.16 5.322 3.314 6.356 6.4a39.482 39.482 0 0 0 1.932 4.859 380.866 380.866 0 0 0-9.148-11.728 8.527 8.527 0 0 0 .86.468m-11.2-37.62c3.069 1.889 3.566 3.53 3.359 5.875q-3.633-3.884-7.376-7.687a17 17 0 0 1 4.017 1.812m-28.132-87.165c3.2.64 5.153 4.722 6.265 9.058a443.535 443.535 0 0 0-12.462-8.966 16.14 16.14 0 0 1 6.2-.092m3.7 27.7c-1.254 2.234-1.463 2.17-3.287 1.373a23.143 23.143 0 0 0-3.885-1.366c-4.188-1.046-5.27-4.28-6.767-8.756-.245-.731-.505-1.487-.779-2.256q7.468 5.342 14.717 11.006m-48.32-25.1c2.607-.1 4.986-1.512 7.267-3.3q12.208 7.424 23.89 15.665a55.719 55.719 0 0 0 1.224 8.951q-15.7-11.408-32.382-21.312M45.884 93.553c-1.107.671-2.2 1.369-3.3 2.051a7.145 7.145 0 0 1 3.3-2.051M26.49 115.11a26.49 26.49 0 0 0 1.3-3.394c.645-2.261 1.7-2.446 4.26-2.89.677-.117 1.438-.25 2.3-.441 4.522-1 5.052-3.654 5.519-5.993a16.964 16.964 0 0 1 1.522-4.761q4.268-2.675 8.606-5.237a29.265 29.265 0 0 1 5.117-.7c2.012 0 6.2-3.759 10.66-8.135q14.945-7.921 30.632-14.586a386.536 386.536 0 0 1 151.4-30.567q17.97 0 35.672 1.63a27.412 27.412 0 0 0 4.224 4.2c5 4.06 6.668 3.518 9.976 1.9a24.663 24.663 0 0 1 6.255-2.254c5.978-1.26 8.522.507 11.74 2.744a29.536 29.536 0 0 0 4.625 2.787 8.211 8.211 0 0 1 3.388 3.048 384.027 384.027 0 0 0-75.879-7.506 381.111 381.111 0 0 0-221.525 70.629l.207-.475m221.32-62.513c-85.667 0-166.931 28.572-232.957 81.167.853-1.584 2.626-2.712 4.62-3.967.988-.622 2.01-1.266 3.015-2.019 2.938-2.2 2.941-3.392 2.684-5.471a14.72 14.72 0 0 1-.147-1.924 9.1 9.1 0 0 1 .53-2.948 378.5 378.5 0 0 1 222.255-71.386 385.1 385.1 0 0 1 76.626 7.672 31.782 31.782 0 0 1 1.4 3.223c.767 1.97 1.452 3.7 2.7 4.34a378.047 378.047 0 0 0-80.728-8.684m82.3 9.016c.7.053 1.5.074 2.381.1 3.356.084 7.953.2 10.9 2.493a10.27 10.27 0 0 0 1.975 1.175 370.341 370.341 0 0 0-15.26-3.763"/><path d="M640.935 328.213A402.568 402.568 0 0 0 621.28 269.6c-.756-1.788-1.549-3.556-2.33-5.331-.179-.407-.354-.816-.534-1.223a5.034 5.034 0 0 0-.645 1.238c.238.537.471 1.076.706 1.614.6 1.376 1.219 2.741 1.8 4.125a401.609 401.609 0 0 1 19.784 59.191l-.4.459c-1.623 1.872-3.258 3.759-4.9 5.574a394.738 394.738 0 0 0-20.518-62.679c-.853-2.017-1.743-4.012-2.627-6.012-.233-.525-.456-1.055-.69-1.578a24.62 24.62 0 0 1-1.612-.961 31.667 31.667 0 0 1-4.657-3.851 20.236 20.236 0 0 0-5.008-3.85c-1.061-.53-1.192-.816-1.207-.892-.031-.154.3-.534.563-.839.978-1.126 2.614-3.011.409-6.87-3.511-6.145-7.068-9.466-12.563-13.358-.344-.243-.7-.49-1.056-.74a13.3 13.3 0 0 1-1.132-.884 14.828 14.828 0 0 1-3.549-4.822c-1.138-2.18-2.215-4.24-5.715-5.048l-.417-.1c-2.769-.638-4.2-.971-5.048-1.636a2.99 2.99 0 0 1-.974-1.485 19.74 19.74 0 0 1-.573-2.393c-.729-3.641-1.812-3.959-3.664-4.209-.044-.005-.1-.015-.142-.022a9.261 9.261 0 0 1-1.5-.315c.3.443.61.883.911 1.327q2.041 3.011 4.015 6.062a4.121 4.121 0 0 0 1.192 1.829 376.711 376.711 0 0 1 51.48 125.083c.077.359.152.72.228 1.08.332-.129.665-.266 1-.421q-.117-.549-.237-1.1a379.183 379.183 0 0 0-21.494-68.055 381.665 381.665 0 0 0-29.149-55.64c.93.314 2.123.593 3.71.959l.418.1c3.013.694 3.888 2.37 5 4.492a14.88 14.88 0 0 0 5.026 6.1c.29.2.568.4.847.593a389.364 389.364 0 0 1 20.181 40.86 385.891 385.891 0 0 1 21.294 66.572c.091.408.175.819.264 1.227.312-.262.623-.538.936-.816-.091-.412-.174-.825-.266-1.237a387.061 387.061 0 0 0-21.227-66.17q-3.957-9.355-8.383-18.445c.114.064.21.125.34.19a19.135 19.135 0 0 1 4.744 3.665 29.569 29.569 0 0 0 6.171 4.8c1.072 2.4 2.136 4.81 3.164 7.238a393.708 393.708 0 0 1 20.642 63.219c.1.427.21.852.308 1.279.294-.318.589-.642.884-.967 1.748-1.922 3.515-3.957 5.307-6.026l.1-.116.77-.885c-.106-.429-.212-.858-.32-1.287m-75.51-113.945c.838.216 1.342.732 1.794 2.732-.6-.909-1.187-1.828-1.794-2.732m32.174 40.364q-4.516-9.143-9.491-18.013a34.871 34.871 0 0 1 10.359 11.636c1.824 3.189.654 4.537-.286 5.62a5.708 5.708 0 0 0-.583.758"/><path d="M680.613 253.188a2.757 2.757 0 0 0-.412-1.027c-.029-.042-.051-.09-.083-.13a2.518 2.518 0 0 0-1.5-.89 5.951 5.951 0 0 0-2.274.026c-1.849.326-3.268.629-4.424.931-.379.1-.728.2-1.054.3.139.336.28.669.418 1q2.343 5.7 4.531 11.439a20.038 20.038 0 0 1-1.21 2.706 14.607 14.607 0 0 0-2.108 7.226q-3.363-9.342-7.145-18.565c-.138-.337-.28-.671-.418-1.008q-.448.241-.967.505c-.1.052-.2.1-.3.154-.833.417-1.459.759-1.958 1.032-1.67.916-1.778.974-4.176.4l-.523-.126-.783-.187q.259.619.516 1.24 5.852 14.125 10.693 28.541c-1.263 1.474-2.591 2.9-3.792 4.184-.446.478-.869.932-1.275 1.373q-5.717-17.505-12.942-34.605c-.281-.665-.582-1.32-.867-1.983-.144-.338-.3-.673-.442-1.011a2.777 2.777 0 0 0-.973.484 8.146 8.146 0 0 0-1.286 1.253 10.134 10.134 0 0 0-1.754 3.137c-.342.873-.556 1.374-.969 1.551a1.338 1.338 0 0 1-.522.08 4.849 4.849 0 0 1-1.284-.253l.06.137c.158.374.31.747.466 1.121a425.965 425.965 0 0 1 14.627 40.457c-.2.437-.39.874-.59 1.324-1.083 2.435-2.263 5.092-3.565 7.742a419.006 419.006 0 0 0-16.975-48.094c-.538-1.27-1.107-2.522-1.655-3.785l-.441-1.009c-.263.169-.569.388-.907.637-.191.141-.376.276-.6.443l-.191.143c-1.685 1.263-3.611 1.049-5.647.823l-.1-.012a33.826 33.826 0 0 0-1.237-.118c.166.376.329.755.5 1.132.752 1.713 1.518 3.418 2.248 5.143a409.536 409.536 0 0 1 18.826 55.118l.344 1.316q.425-.531.838-1.087l-.355-1.357a410.632 410.632 0 0 0-18.653-54.414c-.652-1.538-1.337-3.057-2.005-4.586 2 .211 4.034.311 5.9-1.088l.192-.144.391-.292c.516 1.189 1.051 2.367 1.558 3.561a417.582 417.582 0 0 1 17.259 49.106c.144.51.283 1.023.427 1.535q.373-.71.734-1.427c1.521-3.017 2.88-6.071 4.113-8.844l.077-.175.677-1.517c-.161-.527-.316-1.055-.479-1.581q-6.08-19.716-14.109-38.9a2.067 2.067 0 0 0 .508-.135c.855-.363 1.18-1.191 1.556-2.153a9.1 9.1 0 0 1 1.567-2.827 9.221 9.221 0 0 1 .9-.944c.276.642.567 1.274.84 1.918q7.331 17.333 13.1 35.117l.4 1.239c.176-.238.352-.468.526-.661.094-.1.2-.219.3-.328.521-.572 1.081-1.174 1.679-1.814 1.1-1.182 2.272-2.434 3.4-3.719.279-.318.554-.64.827-.961-.137-.407-.268-.816-.405-1.223q-4.64-13.76-10.211-27.261c2.027.443 2.417.289 4.186-.68.491-.269 1.1-.6 1.922-1.013.083-.041.154-.079.235-.121q4.387 10.7 8.209 21.555c.206.589.406 1.18.61 1.769a9.052 9.052 0 0 0 .51-1.855 5.915 5.915 0 0 0 .008-1.98c-.606-3.332.643-5.787 1.85-8.161.29-.57.569-1.123.815-1.673a11.369 11.369 0 0 0 .572-1.52c0-.01.008-.022.01-.031a27.6 27.6 0 0 1 1.173-2.841 35.285 35.285 0 0 0 2.339-6.2 6.43 6.43 0 0 0 .134-2.584m-3.465 8.337a70.308 70.308 0 0 0-.771 1.76q-1.958-5.106-4.042-10.177c1.1-.28 2.442-.563 4.194-.872 1.365-.239 2.272-.089 2.709.442.007.008.018.012.025.02a1.761 1.761 0 0 1 .316.83c.29 1.929-1.312 5.506-2.431 8"/></svg>
