<svg role="presentation" xmlns="http://www.w3.org/2000/svg" viewBox="0 0 639.609 738.206"><path d="M416.599 727.942a216.733 216.733 0 0 1-10.4-3.7 66.603 66.603 0 0 1-1.558-.621 17.465 17.465 0 0 1-3.562-1.892 13.479 13.479 0 0 1-2.4-2.271 35.36 35.36 0 0 1-4.042-6.523c-.678-1.3-1.379-2.642-2.149-3.9a4.671 4.671 0 0 0-3.242-1.86 8.655 8.655 0 0 0-4.97 0 15.175 15.175 0 0 0-2.555.284c-.1.018-.215.03-.317.05a5.78 5.78 0 0 0-2.3.89 5.215 5.215 0 0 0-1.461 1.893c-.124.25-.223.509-.329.766s-.216.521-.309.786c.22.182.446.355.667.537q12.045 9.881 24.94 18.533h-.018l-.1.31a12.691 12.691 0 0 1-2.235 4.242c-.109.135-.214.255-.316.37q-12.27-8.2-23.79-17.516c-.219-.178-.44-.353-.66-.531-.011.045-.022.1-.034.139-.1.212-.2.408-.3.616a26.645 26.645 0 0 1-1.4 2.571 3.457 3.457 0 0 1-.8.115 14.023 14.023 0 0 1-3.713-.293 12.494 12.494 0 0 1-1.916-.571c-.2-.078-.4-.159-.589-.246a307.139 307.139 0 0 1-3.123-1.97q-.389-.308-.775-.621a89.33 89.33 0 0 0-1.05-.836 32.755 32.755 0 0 0-5.923-3.649c-2.606-1.719-5.66-3.53-9.034-3.476-.153 0-.306 0-.46.014l-.634.042-.147.01 7.526 9.1a40.567 40.567 0 0 0 6.693 6.9 34.743 34.743 0 0 0 3.48 2.223 116.894 116.894 0 0 0 5.4 2.925 20.7 20.7 0 0 0 2.925 1.273c.1.034.207.075.312.1a13.224 13.224 0 0 0 1.6.352c.587.1 1.173.165 1.741.225l.5.051a28.4 28.4 0 0 1 3.442.492 7.977 7.977 0 0 1 4.3 2.29c1.784 2.008 4.441 2.507 7.144 2.608.434.016.869.023 1.3.023h.135q-.586-.4-1.171-.81-10.485-7.314-20.422-15.431a14.861 14.861 0 0 0 2.495.072 3.7 3.7 0 0 0 1.168-.209l.121-.047.07-.111a26.614 26.614 0 0 0 1.444-2.6q11.411 9.2 23.551 17.341c.231.154.464.3.694.456a6.931 6.931 0 0 0 .573-.582c.093-.107.183-.213.263-.312a13.392 13.392 0 0 0 2.263-4.153 3.468 3.468 0 0 1 1.241 1.176 8.824 8.824 0 0 0 .675.8 6.765 6.765 0 0 0 4.3 1.532c.258.017.522.026.791.026h.071c.211 0 .432-.01.656-.024 1.792-.1 3.878-.6 4.991-1.758a4.346 4.346 0 0 0 .838-1.181 2.6 2.6 0 0 0 .232-.8 2.216 2.216 0 0 0-.011-.592c.192-.468.4-1 .569-1.559a1.27 1.27 0 0 0 .053-.7 1.32 1.32 0 0 0-.959-.8m-47.536 2.14c-1.8-.911-3.6-1.887-5.365-2.9a34.029 34.029 0 0 1-3.4-2.17 39.941 39.941 0 0 1-6.556-6.765l-4.083-4.94q9.516 8.83 19.6 16.878l-.2-.1m20.33 7.231a7.692 7.692 0 0 1-5.271-2.258 8.746 8.746 0 0 0-4.723-2.539 29.269 29.269 0 0 0-3.54-.509l-.493-.05a18.374 18.374 0 0 1-3.2-.549c-.051-.015-.1-.035-.153-.051q-12.565-9.849-24.258-20.923c2.811.253 5.423 1.806 7.729 3.323a32.393 32.393 0 0 1 5.826 3.587c.348.271.694.549 1.038.827.26.21.52.42.813.649 1.049.674 2.106 1.337 3.21 2.022a13.263 13.263 0 0 0 2.519.852q9.967 8.221 20.506 15.619m-5.01-29.32.144-.032c1.337-.569 2.86-.329 4.569.015a3.937 3.937 0 0 1 2.718 1.492c.755 1.233 1.449 2.564 2.121 3.85.807 1.547 1.633 3.113 2.588 4.576q-6.525-4.757-12.817-9.853c.226-.016.445-.042.677-.049M415.3 733.02c-.888.921-2.881 1.524-5.075 1.536h-.066c-.187 0-.368-.009-.55-.018a322 322 0 0 1-31.656-22.946c.125-.316.25-.632.4-.935a4.308 4.308 0 0 1 1.22-1.607 4.955 4.955 0 0 1 1.991-.75c.32-.066.658-.112.994-.158q7.611 6.2 15.564 11.9a14.188 14.188 0 0 0 2.487 2.334 18.2 18.2 0 0 0 3.631 1.939q5.806 3.957 11.787 7.646a3.39 3.39 0 0 1-.73 1.052m-7.689-7.4c2.9 1.085 5.821 2.129 8.738 3.082.335.111.421.195.435.247a.7.7 0 0 1-.046.265 17.216 17.216 0 0 1-.588 1.593l-.048.116.027.123v.041q-4.3-2.667-8.52-5.466"/><path d="M470.138 696.331a3.052 3.052 0 0 0-.165-.416 2.844 2.844 0 0 0-.735-.915 6.625 6.625 0 0 0-2.2-1.076c-.891-.447-1.776-.907-2.664-1.364l-.256-.273-.081.1-.526.629-2.648 3.167a1.22 1.22 0 0 1-.5.428 1.328 1.328 0 0 1-.853-.283 20.883 20.883 0 0 0-5.068-2.1q-.388-.1-.794-.18a4.633 4.633 0 0 0-1.739-.047 6.659 6.659 0 0 0-3.491 2.512l-1.108 1.268-.537.614-2.521 2.885.421.243c.368.213.712.418 1.039.612 2.886 1.719 4.544 2.7 7.579-.089.16-.147.32-.295.486-.462l.139-.108a1.274 1.274 0 0 1 .606-.309 1.351 1.351 0 0 1 1.006.585c.275.306.538.655.8 1 .046.064.1.127.142.191a15.29 15.29 0 0 0 1.08 1.347 4 4 0 0 0 2.1 1.3 3.177 3.177 0 0 0 .505.054c.058 0 .119.018.177.018a3.662 3.662 0 0 0 1.216-.225c-.392-.2-.786-.387-1.176-.585-.784-.4-1.559-.81-2.338-1.214-.319-.356-.619-.759-.924-1.173s-.636-.86-.987-1.25a2.144 2.144 0 0 0-1.541-.855 1.239 1.239 0 0 0-.143.008 2.325 2.325 0 0 0-1.2.617c-.027.027-.051.048-.077.075q-2.591-1.409-5.153-2.87l1.006-1.151a5.832 5.832 0 0 1 3.038-2.254 3.8 3.8 0 0 1 1.325.027q6.556 3.655 13.3 6.926c.4.2.8.4 1.21.591a3.548 3.548 0 0 0 1.07-.369c.058-.032.119-.056.175-.094 1.3-.865 1.339-2.648 1.231-4.1a6.122 6.122 0 0 0-.226-1.434m-17.59 5.306c-2.451 2.167-3.642 1.466-6.431-.19q-.3-.18-.625-.372l1.982-2.269q2.521 1.446 5.074 2.831m16.141-.436a2.2 2.2 0 0 1-.7.287q-4.234-2.033-8.4-4.221a1.444 1.444 0 0 0 .98.113 1.865 1.865 0 0 0 .9-.686l2.695-3.223a7.514 7.514 0 0 0 2.453 1.159l.108.036c.691.346 1.389.678 2.084 1.017a2.024 2.024 0 0 1 .444.589 4.154 4.154 0 0 1 .309 1.55c.1 1.316.07 2.747-.877 3.378"/><path d="M478.223 545.88a4.142 4.142 0 0 0-5.059-1.3c-.256.083-.505.162-.751.223a138.152 138.152 0 0 1-28.074-83.622c0-76.572 62.3-138.868 138.868-138.868a138.062 138.062 0 0 1 56.361 11.964c.023-.292.038-.577.041-.856a138.864 138.864 0 0 0-56.4-11.908c-77.014 0-139.669 62.655-139.669 139.669a138.947 138.947 0 0 0 27.94 83.724.991.991 0 0 1-.4-.1 1.782 1.782 0 0 1-.42-.388l-4.588-5.186-.25.579a5.961 5.961 0 0 0-.567 3.341 6.409 6.409 0 0 0 2.22 3.558 23.853 23.853 0 0 0 5.325 3.581c.893.464 1.8 1.045 1.794 1.843a2.457 2.457 0 0 1-.275.906c-.05.116-.1.231-.147.348a7.181 7.181 0 0 0-.229 3.178c.006.071.009.141.014.212a144.632 144.632 0 0 1-36-95.6c0-80.088 65.155-145.244 145.244-145.244a144.482 144.482 0 0 1 53.609 10.256c-.038-.069-.081-.136-.118-.206-.148-.278-.267-.57-.395-.858a145.288 145.288 0 0 0-53.1-9.994c-80.53 0-146.044 65.516-146.044 146.044a145.548 145.548 0 0 0 41.396 101.751q.347.357.7.712a4.764 4.764 0 0 0 .125-1.018v-.046a7.874 7.874 0 0 0-.287-1.834 1.561 1.561 0 0 0-.239-.59 1.619 1.619 0 0 0-.61-.453 12.232 12.232 0 0 1-3.454-2.643l-.039-.549a6.608 6.608 0 0 1 .176-2.825c.042-.106.088-.212.135-.317a3.143 3.143 0 0 0 .342-1.219c.018-1.4-1.5-2.185-2.226-2.563a23.1 23.1 0 0 1-5.15-3.459 5.589 5.589 0 0 1-1.973-3.1 4.684 4.684 0 0 1 .278-2.3l3.739 4.225a2.433 2.433 0 0 0 .628.555 1.927 1.927 0 0 0 1.08.207c.1-.005.205-.021.307-.035a5.816 5.816 0 0 0 .861-.193q.237-.07.47-.146a4.554 4.554 0 0 1 1.712-.332 4.7 4.7 0 0 1 2.574 1.473c.352.308.716.625 1.1.9a6.6 6.6 0 0 0 3.854 1.2 6.252 6.252 0 0 0 .754-.047c.079-.01.157-.031.236-.042a14.86 14.86 0 0 0 1.412-.315 7.153 7.153 0 0 1 2.427-.36 7.483 7.483 0 0 1 1.947.545 7.723 7.723 0 0 0 2.188.585 3.475 3.475 0 0 0 .727-.024l.184-.026.062-.1.037-.059a6.275 6.275 0 0 1 2.867-2.54 13.9 13.9 0 0 1 1.47-.5c.1-.03.194-.065.291-.094.267-.082.533-.161.794-.256.018-.006.034-.015.053-.022-.208-.211-.414-.424-.621-.636a119.7 119.7 0 0 1 135.365-192.459c.179-.212.362-.42.546-.629a120.489 120.489 0 0 0-136.764 193.363 13.763 13.763 0 0 0-1.453.5 6.994 6.994 0 0 0-3.122 2.685h-.1a126.071 126.071 0 0 1 144.962-201.057q.064-.419.13-.823a126.859 126.859 0 0 0-146.374 201.68c-.316-.1-.635-.211-.962-.333a8.191 8.191 0 0 0-2.16-.593 7.827 7.827 0 0 0-2.7.383 12.042 12.042 0 0 1-1.546.337c-.1.014-.2.018-.3.025a131.932 131.932 0 0 1-32.284-86.584c0-73.056 59.436-132.493 132.493-132.493a131.718 131.718 0 0 1 54.969 11.954c.061-.242.121-.482.183-.719l.019-.07a132.519 132.519 0 0 0-55.172-11.965c-73.5 0-133.294 59.8-133.294 133.294a132.709 132.709 0 0 0 32.017 86.562 5.8 5.8 0 0 1-2.672-1.013c-.352-.251-.7-.555-1.036-.85"/><path d="M337.747 393.835c.231.171.463.339.7.5.074-.274.141-.549.216-.823a254.946 254.946 0 0 1 133.615-160.539l.736-.36-.149-.191c-.115-.145-.239-.3-.368-.449-1.046-1.24-2.551-2.648-4.455-2.723a3.428 3.428 0 0 1-.862-.06 1.015 1.015 0 0 1-.588-.54 2.28 2.28 0 0 1-.227-.782 3.423 3.423 0 0 1-.016-.6c.013-.2.034-.4.055-.6a4.226 4.226 0 0 0-.2-2.36 3.6 3.6 0 0 0-1.962-1.614q-.273-.119-.556-.232c-.145-.057-.29-.117-.435-.175-.314.158-.624.325-.937.484A268.916 268.916 0 0 0 330.64 373.668q-.216.625-.429 1.249c.138.408.279.812.43 1.214a27.887 27.887 0 0 0 1.984 4.285 12.82 12.82 0 0 1 1.381 3.458 12.97 12.97 0 0 1 .291 1.751 12.583 12.583 0 0 1 .042 2.026l-.031.427a5.426 5.426 0 0 0 .2 2.51 4.984 4.984 0 0 0 1.421 1.783c.589.52 1.2 1 1.821 1.464m-4.434-13.818a28.9 28.9 0 0 1-2.258-5.094 268.137 268.137 0 0 1 132.237-151.751l.1.04a3.639 3.639 0 0 1 2.092 1.451 3.577 3.577 0 0 1 .124 1.926c-.022.211-.044.42-.058.627a4.045 4.045 0 0 0 .072 1.03 262.389 262.389 0 0 0-131.187 154.261 13.416 13.416 0 0 0-1.122-2.494m1.932 10.275a4.767 4.767 0 0 1-.143-2.147l.032-.439a13.556 13.556 0 0 0-.305-3.784 261.577 261.577 0 0 1 131.054-154.901 1.772 1.772 0 0 0 1.063.943 2.826 2.826 0 0 0 .838.091h.229a5.659 5.659 0 0 1 3.74 2.286 255.766 255.766 0 0 0-133.788 160.661 26.182 26.182 0 0 1-1.511-1.226 4.31 4.31 0 0 1-1.209-1.484"/><path d="m538.19 492.14-.26.614c-.118.282-.227.557-.334.833a55.95 55.95 0 0 1 70.33-82.622l-.026-.914a56.753 56.753 0 0 0-70.641 84.442c-.26.729-.5 1.464-.721 2.256a20.066 20.066 0 0 0-2.656 2.526 62.329 62.329 0 0 1 73.934-95.384c0-.291.01-.581.017-.872a63.125 63.125 0 0 0-74.481 96.876l.5.64c.17-.212.353-.412.532-.618a19.334 19.334 0 0 1 2.745-2.616l.1-.081.035-.127a36.258 36.258 0 0 1 .882-2.719c.161-.433.328-.867.514-1.312l.257-.606a17.657 17.657 0 0 0 .985-2.7 12.019 12.019 0 0 0 .3-2.281 27.9 27.9 0 0 0 .031-1.532 64.402 64.402 0 0 0-.243-5.193l-.019-.209a9.323 9.323 0 0 1 .047-2.968 6.987 6.987 0 0 1 1.373-2.577c.175-.227.356-.45.537-.668l.059-.068c-.1-.3-.183-.606-.271-.91a43.219 43.219 0 0 1 61.991-50.216c-.018-.308-.038-.616-.05-.925a44.027 44.027 0 0 0-62.565 51.875 8.618 8.618 0 0 0-1.852 3.3 9.9 9.9 0 0 0-.065 3.228l.018.207c.106 1.2.164 2.415.2 3.626a49.592 49.592 0 0 1 65.475-67.877c.05-.094.1-.186.148-.282.077-.143.155-.281.232-.422a50.379 50.379 0 0 0-65.816 70.293 14.267 14.267 0 0 1-.309 3.41 17.054 17.054 0 0 1-.943 2.578"/><path d="M89.811 102.637c-.159-.253-.322-.506-.485-.76s-.313-.473-.473-.708a11.131 11.131 0 0 0-2.041-2.37 3.946 3.946 0 0 0-2.6-.73c-.25 0-.5 0-.751.01h-.25c-.209 0-.419.01-.621.006-.1 0-.144-.012-.149 0a1 1 0 0 1-.014-.14l-.015-.369a15.116 15.116 0 0 0-1.012-5.824c-.057-.122-.129-.233-.191-.352a12.196 12.196 0 0 0-.428-.769c-.176-.283-.357-.561-.537-.833s-.37-.558-.546-.842a31.582 31.582 0 0 1-1.809-3.576l-.064-.139c-.126-.277-.258-.551-.385-.827-.135-.291-.265-.585-.407-.873A30.4 30.4 0 0 0 74.4 79.19c-.163-.227-.322-.455-.492-.678a32.842 32.842 0 0 0-3.814-4.2c-.2-.181-.4-.351-.6-.528a33 33 0 0 0-2.472-2l-.75-2.978-.251-1-.081-.322c-.194-.768-.549-1.186-1.055-1.243a1.467 1.467 0 0 0-.333.011.7.7 0 0 1-.155.009c-.1-.021-.194-.329-.264-.549a6.741 6.741 0 0 0-.876-1.631l-.658-.987c-.156-.232-.315-.464-.472-.7a38.832 38.832 0 0 0-3.529-4.542 20.81 20.81 0 0 0-1.521-1.502c-.276-.246-.561-.483-.845-.721a14.466 14.466 0 0 1-1.96-1.853c-.1-.124-.191-.256-.283-.386a8 8 0 0 1-.46-.713 18.6 18.6 0 0 1-1.687-4.989 76.134 76.134 0 0 0-.362-1.465 23.87 23.87 0 0 0-.271-.959c-.03-.1-.054-.2-.085-.3l-.048-.151a3.138 3.138 0 0 1-.109-2.246l.861-3.749 1.244 1.434a1.77 1.77 0 0 0 .616.513 1.838 1.838 0 0 0 .85.1h.155c.347-.014.693-.018 1.038-.018.555 0 1.108.015 1.653.054a2.609 2.609 0 0 1 .928.184 2.816 2.816 0 0 1 .781.671l.172.184a7.775 7.775 0 0 0 1.676 1.312c.1.058.183.129.283.183l.245.128c.061.031.115.063.173.094a2.671 2.671 0 0 1 .7.474 3.077 3.077 0 0 1 .46 2.357 6.024 6.024 0 0 0 .172 2.2 5.014 5.014 0 0 0 .744 1.318c.035.047.069.1.1.143l.111.153c.091.127.175.259.264.388l.521-.656q8.344-10.5 17.127-20.678c1.246.173 2.5.316 3.763.4a23.928 23.928 0 0 0 3.28.009q-11.023 12.6-21.358 25.7l-.557.7a8.326 8.326 0 0 0 .416.762 4.543 4.543 0 0 0 1.266 1.381c.1.071.209.137.316.2a2.52 2.52 0 0 1 .556.412c.435.476.288 1.281.146 2.059l-.062.347.171.149q.336.293.673.591.3.267.6.538c.164-.211.327-.424.492-.634q14.6-18.66 30.61-36.317a13.516 13.516 0 0 1 5.443 2.306Q90.515 46.67 75.043 66.552l-.553.712c.124.266.255.531.4.789a4.88 4.88 0 0 0 .628.887 3.959 3.959 0 0 0 2.593 1.267 7.8 7.8 0 0 0 1.061-.013 5.912 5.912 0 0 1 1.1.014 1.688 1.688 0 0 1 .625.192 1.375 1.375 0 0 1 .147.12 2.949 2.949 0 0 1 .9 1.964l.045.268a4.839 4.839 0 0 0 .891 2.517 4.7 4.7 0 0 0 .758.666c.056.043.107.086.161.127a2.958 2.958 0 0 1 .511.471c.023.029.042.063.064.095l.506-.652q14.94-19.277 31.422-37.463c.186-.2.368-.41.554-.614l-.452-.691c-.186.2-.37.408-.555.613q-16.56 18.247-31.56 37.614c-.057-.044-.112-.09-.168-.133a4.033 4.033 0 0 1-.632-.55 4.185 4.185 0 0 1-.708-2.117l-.044-.28a3.839 3.839 0 0 0-1.19-2.479q14.805-18.929 31.094-36.8l.553-.6a38.187 38.187 0 0 0-.488-.653l-.549.6q-16.415 18-31.334 37.088a4.895 4.895 0 0 0-1.694-.11 6.964 6.964 0 0 1-.954.014 3.147 3.147 0 0 1-2.063-1.008 4.632 4.632 0 0 1-.683-1.039Q91.02 47.32 108.25 28.435c.179-.2.361-.392.541-.588-.214-.163-.432-.32-.653-.474a14.764 14.764 0 0 0-5.357-2.411 10.788 10.788 0 0 0-.941-.155 9.121 9.121 0 0 0-4.831.682 16.944 16.944 0 0 0-2.368 1.363 17.1 17.1 0 0 1-2.173 1.265 9.09 9.09 0 0 1-1.524.524 11.5 11.5 0 0 1-1.281.246 20.468 20.468 0 0 1-4.008.078 50.363 50.363 0 0 1-4.139-.451c-.207.239-.412.482-.618.722q-8.539 9.903-16.663 20.116a3.747 3.747 0 0 1-.5-.922 5.437 5.437 0 0 1-.131-1.909 3.729 3.729 0 0 0-.682-2.945 3.062 3.062 0 0 0-.769-.561q6.154-7.647 12.553-15.122l.574-.67c-.284-.074-.565-.161-.849-.239l-.574.67q-6.317 7.4-12.414 14.968a7.013 7.013 0 0 1-1.6-1.236l-.163-.175a3.446 3.446 0 0 0-1.024-.85 3.3 3.3 0 0 0-1.216-.261c-.357-.026-.719-.034-1.081-.045q5.782-7.214 11.768-14.283c.185-.218.373-.434.558-.652-.267-.1-.537-.192-.8-.294-.183.215-.368.428-.551.644q-6.107 7.214-11.994 14.582c-.281 0-.561 0-.842.015a1.188 1.188 0 0 1-.488-.035 1.144 1.144 0 0 1-.333-.3l-2.278-2.636-1.21 5.286a3.885 3.885 0 0 0 .127 2.671l.046.147c.087.275.162.563.239.847q-2.914 3.727-5.769 7.5l-.554.732q.184.435.346.871a15.192 15.192 0 0 1 .638 2.172l.043.207.195.082a27.193 27.193 0 0 1 3.09 1.538c.233.135.464.271.694.412a27.756 27.756 0 0 1 4.43 3.385c.156.147.316.289.468.44l.115.116a5.345 5.345 0 0 1 1.084 1.4 4.2 4.2 0 0 1 .305 2.279 1.449 1.449 0 0 1-.11.479 1.725 1.725 0 0 1-.4.447l-2.264 2.061a.932.932 0 0 1-.113.094.9.9 0 0 1-.2-.07 6.994 6.994 0 0 0-2.872-.557c-.082 0-.163-.006-.245 0l-.479.024.11.468c.02.084.046.166.068.25a11.057 11.057 0 0 0 2.748 4.9c.109.112.221.217.333.324.2.19.4.372.6.542.344.294.678.557.966.778a13.443 13.443 0 0 0 2.822 1.762c.216.093.443.18.672.269l.305.118a8.178 8.178 0 0 1 .749.334 2.224 2.224 0 0 1 1.013.9l.471.918.271-1a.384.384 0 0 1 .229-.243.976.976 0 0 1 .77.011 3.374 3.374 0 0 1 .881.706c.145.145.291.288.444.421a6.572 6.572 0 0 0 1.055.715c.153.087.306.178.458.261l.245.135.042.024a21.763 21.763 0 0 1 2.813 1.863 4.942 4.942 0 0 1 1.4 1.482c.028.054.044.114.068.169a3.639 3.639 0 0 1 .274.977 8.58 8.58 0 0 1 .074 1.112 22.64 22.64 0 0 1-.89 6.546l-.127.436.449.07a10.222 10.222 0 0 1 1.272.292q.4.114.8.263a17.461 17.461 0 0 1 4.445 2.535c.129.1.252.2.38.3q.315.246.626.5c.667.545 1.326 1.1 1.965 1.653.75.648 1.526 1.306 2.319 1.939.156.125.308.255.466.377l.161.123.123.094a8.642 8.642 0 0 1 1.86 1.723 8.481 8.481 0 0 1 .937 1.935c.14.364.289.737.458 1.1.021.045.038.09.059.134a5.827 5.827 0 0 0 .372.646 3.38 3.38 0 0 0 2.606 1.714 4.6 4.6 0 0 0 2.921-1.4 2.851 2.851 0 0 0 .763-4.615c-.349-.495-.687-1.034-1.031-1.582m2.99-73.8a17.479 17.479 0 0 0 2.278-1.323 16.049 16.049 0 0 1 2.255-1.3 8.251 8.251 0 0 1 3.838-.668q-15.8 17.447-30.227 35.886c-.156-.139-.312-.275-.466-.41a2.979 2.979 0 0 0-.36-2.641 3.217 3.217 0 0 0-.728-.555 5.783 5.783 0 0 1-.28-.179 4.052 4.052 0 0 1-1.195-1.396q10.7-13.577 22.146-26.62a10.539 10.539 0 0 0 2.733-.8m-46.804 28.12a16.933 16.933 0 0 0-.812-2.551q2.809-3.7 5.668-7.374c.069.283.14.566.206.846a18.341 18.341 0 0 0 1.942 5.479q-1.978 2.566-3.928 5.149a28.056 28.056 0 0 0-3.076-1.549m3.767 1.964q1.846-2.442 3.713-4.87c.059.078.111.16.175.237a15.256 15.256 0 0 0 2.065 1.96c.278.232.557.464.827.7.345.306.676.626 1 .955q-1.685 2.191-3.348 4.4a28.534 28.534 0 0 0-4.431-3.384m2.739 15.795a10.248 10.248 0 0 1-2.484-4.285 6.211 6.211 0 0 1 2.269.5 1.079 1.079 0 0 0 .685.113 1.059 1.059 0 0 0 .478-.283l2.265-2.061a2.406 2.406 0 0 0 .573-.682 2.141 2.141 0 0 0 .19-.752 4.982 4.982 0 0 0-.379-2.709 6.265 6.265 0 0 0-1.32-1.698q1.653-2.186 3.319-4.363a39.652 39.652 0 0 1 3.509 4.579q-4.506 5.887-8.87 11.871c-.079-.077-.159-.151-.235-.23m5.1 3.484c-.219-.085-.435-.167-.642-.256a12.758 12.758 0 0 1-2.652-1.662 21.521 21.521 0 0 1-.979-.792q4.307-5.9 8.75-11.714l.505.757a6.089 6.089 0 0 1 .8 1.486c.116.364.292.915.837 1.033a1.217 1.217 0 0 0 .424 0 .642.642 0 0 1 .147-.01c.134.015.267.249.367.642l.239.946q-3.689 4.852-7.286 9.767c-.171-.07-.341-.137-.508-.2m5.37 2.31a6.882 6.882 0 0 1-.4-.383 4 4 0 0 0-1.106-.863 1.778 1.778 0 0 0-1.446-.013 1.337 1.337 0 0 0-.276.171 3.365 3.365 0 0 0-.893-.671q3.356-4.591 6.8-9.122l.665 2.637.119.085a33.6 33.6 0 0 1 2.575 2.08q-2.541 3.364-5.026 6.755a6.111 6.111 0 0 1-1.009-.673m4.582 2.972a22.609 22.609 0 0 0-2.869-1.9q2.439-3.321 4.921-6.614a32.033 32.033 0 0 1 3.8 4.216q-2.195 2.921-4.354 5.867a6.025 6.025 0 0 0-1.5-1.566m1.318 10.713a23.457 23.457 0 0 0 .8-6.351 7.052 7.052 0 0 0-.241-1.96q2.21-3.028 4.459-6.02a29.582 29.582 0 0 1 2.422 4.034c.2.414.392.834.584 1.254q-3.46 4.646-6.827 9.356a11.347 11.347 0 0 0-1.2-.316m6.432 3.163a18.619 18.619 0 0 0-4.445-2.571q3.173-4.427 6.422-8.8a30.019 30.019 0 0 0 1.732 3.4c.18.292.37.577.56.864.244.369.473.729.687 1.092q-2.316 3.141-4.592 6.311c-.123-.1-.24-.2-.364-.292m3.012 2.49a98.26 98.26 0 0 0-2.021-1.7q2.174-3.03 4.385-6.033a14.6 14.6 0 0 1 .928 5.5l.015.371a.839.839 0 0 0 .943.908h.061q-1.029 1.42-2.048 2.848a77.357 77.357 0 0 1-2.264-1.894m6.09 6.508a7.073 7.073 0 0 0-3.058-4.006l-.141-.108c.8-1.121 1.6-2.243 2.416-3.36a3.959 3.959 0 0 1 2.679.544 10.972 10.972 0 0 1 2.048 2.429q-1.861 2.556-3.691 5.132a27.967 27.967 0 0 1-.252-.636m5.155 1.872a3.762 3.762 0 0 1-2.382 1.211 2.852 2.852 0 0 1-2.127-1.622q1.869-2.628 3.766-5.237c.1.164.21.327.312.491.351.56.7 1.11 1.053 1.616a2.929 2.929 0 0 1 .715 1.648c-.027.734-.675 1.338-1.337 1.893"/><path d="M222.239 141.387a5.046 5.046 0 0 0 3.618-2.187c1.2-1.4 2.833-3.323 3-5.6a9.13 9.13 0 0 0 .01-.86q5.532-5.958 11.284-11.752c.317-.32.631-.641.949-.96q-.677.09-1.349.226a20.616 20.616 0 0 0-7.463 3.1 2.619 2.619 0 0 0-.691.612 2.785 2.785 0 0 0-.421 1.243 7.81 7.81 0 0 1-.062.346 7.227 7.227 0 0 1-1.417 2.623 7.414 7.414 0 0 0-1.579 3.1 6.362 6.362 0 0 0-.055 1.152v.214c.007.3.014.6-.006.9 0 .03-.01.059-.014.09-.166 1.827-1.361 3.371-2.794 5.052a4.3 4.3 0 0 1-3.187 1.924l-.428.088q-.644.136-1.3.259c-.283.32-.562.641-.844.962q-8.541 9.71-16.526 19.818a6.306 6.306 0 0 0-1.229-.574 10.225 10.225 0 0 0-3.79-.252c-.484.029-.984.06-1.489.1q7.306-9.387 15.085-18.441c.268-.312.534-.626.8-.938-.335.04-.668.091-1 .159-.082.017-.162.043-.243.062a23.423 23.423 0 0 0-4.271 1.554l-3.892 1.72c-.484-.2-.965-.346-1.431-.49l-.049-.015a23.162 23.162 0 0 1-.82-.268 9.104 9.104 0 0 1-.645-.244 13.017 13.017 0 0 1-1.747-.856 13.4 13.4 0 0 1-1.361-1.029c-.338-.279-.684-.56-1.048-.818a7.053 7.053 0 0 0-.682-.433 5.193 5.193 0 0 0-.722-.333 8.4 8.4 0 0 0-1.849-.376c-.238-.031-.476-.061-.71-.1a3.3 3.3 0 0 1-2.017-.912 2.422 2.422 0 0 1-.228-.336 6.682 6.682 0 0 1-.345-.649l-.058-.124c-.187.227-.371.456-.557.685q-8.906 10.87-17.179 22.184c-.2-.056-.4-.107-.6-.163a5.874 5.874 0 0 1-2.267-1.7 11.56 11.56 0 0 0-1.345-1.241c-.092-.068-.189-.123-.284-.184q9.1-12.451 18.967-24.376c.182-.22.367-.438.549-.657-.141-.245-.289-.485-.437-.726a19.857 19.857 0 0 0-2.677-3.51 9.974 9.974 0 0 0-.52-1.359q-.184-.4-.378-.8l-.562.673q-11.768 14.092-22.479 28.921a22.993 22.993 0 0 1-5.306-2.172q11.924-16.6 25.157-32.3l.568-.674-.373-.8-.79-1.684a29.281 29.281 0 0 1-1.643-4.047c-.048-.163-.106-.324-.148-.489s-.062-.305-.1-.458a29.083 29.083 0 0 1-.509-4.294 82.071 82.071 0 0 1-.175-3.428q-.013-.6-.006-1.206a20.308 20.308 0 0 1 .436-4.2 31.766 31.766 0 0 1 2.411-6.323c.309-.665.619-1.334.917-2.013s.585-1.388.84-2.1a17.207 17.207 0 0 0 .939-3.755 6.745 6.745 0 0 0-.83-4.522 6.039 6.039 0 0 0-.476-.662l-.546.58a555.445 555.445 0 0 0-49.51 60.484l-.468.669c.19.192.39.372.59.554.155-.219.307-.44.462-.66a554.615 554.615 0 0 1 49.387-60.375 6.107 6.107 0 0 1 .6 3.826 19.9 19.9 0 0 1-1.667 5.507 548.381 548.381 0 0 0-43.486 53.851c-.162.227-.32.457-.48.686q.392.141.792.265c.165-.233.327-.468.492-.7a547.338 547.338 0 0 1 41.62-51.763 31.279 31.279 0 0 0-2.363 6.265 22.514 22.514 0 0 0-.452 5.284q-17.43 19.928-32.757 41.343c-.178.248-.358.5-.536.745q.455.055.91.106l.165.019a8.184 8.184 0 0 1 2.693.6 8.04 8.04 0 0 1 2.185 1.831l.036.038.332.348c.078.08.163.151.24.229l.472-.656q12.927-17.983 27.375-34.916a33.707 33.707 0 0 0 1.537 3.664l.945 2.016q-13.414 15.884-25.485 32.712l-.47.653c.229.14.468.263.7.395a23.855 23.855 0 0 0 5.278 2.212c.275.077.547.158.824.226.733.179 1.471.333 2.22.441.256.036.514.069.774.1a12.428 12.428 0 0 1 3.018.648 4.752 4.752 0 0 1 .724.365c.1.059.194.116.284.183a10.735 10.735 0 0 1 1.249 1.156 6.419 6.419 0 0 0 2.619 1.915c.1.03.21.055.314.086.275.078.553.149.829.225.168-.231.34-.46.509-.691q8.087-11.049 16.786-21.677c.053.072.091.15.151.218a4.033 4.033 0 0 0 2.49 1.175c.245.04.492.072.739.1a7.7 7.7 0 0 1 1.677.336 4.121 4.121 0 0 1 .469.212q-8.512 10.322-16.435 21.06l-.522.708.861.183.522-.709q7.85-10.608 16.269-20.825c.354.247.7.531 1.051.822a13.871 13.871 0 0 0 1.447 1.091 13.666 13.666 0 0 0 1.855.913c.14.06.279.107.419.159q-7.639 9.232-14.8 18.793c-.2.263-.4.525-.592.788a8.275 8.275 0 0 0 1.007-.01 6.482 6.482 0 0 0 .734-.08 11.412 11.412 0 0 0 2.7-.981c.374-.173.749-.347 1.129-.5a17.02 17.02 0 0 1 4.425-1.037q.549-.064 1.1-.111a87.41 87.41 0 0 1 2.2-.151 9.569 9.569 0 0 1 3.5.215 5.433 5.433 0 0 1 .975.443c.232.131.46.271.684.427.165-.21.332-.416.5-.626q8.255-10.45 17.111-20.476c.5-.1.991-.2 1.48-.3m6.666-9.986a6.73 6.73 0 0 1 1.437-2.759 7.934 7.934 0 0 0 1.553-2.928c.026-.126.047-.254.069-.382a2.122 2.122 0 0 1 .278-.9 1.927 1.927 0 0 1 .493-.42 19.738 19.738 0 0 1 5.96-2.7q-4.978 5.044-9.8 10.207c0-.04 0-.082.01-.121m-80.4 17.859a8.46 8.46 0 0 0-2.344-1.928 8.052 8.052 0 0 0-2.674-.644q14.933-20.831 31.881-40.273c.037.872.091 1.741.147 2.6a26.833 26.833 0 0 0 .628 4.9c.009.034.022.067.031.1q-14.6 17.081-27.669 35.245m14.371 7.287-.762-.1q-.926-.133-1.835-.342 10.5-14.518 22.018-28.334a7.447 7.447 0 0 1 .348.975l.027.1.076.077a19.328 19.328 0 0 1 2.777 3.674q-10.014 12.087-19.245 24.722a12.234 12.234 0 0 0-3.406-.774m27.094 5.714c-.393.159-.78.337-1.166.517a11.083 11.083 0 0 1-2.423.9q7.035-9.359 14.525-18.4l.366.117a14.807 14.807 0 0 1 1.515.529l.16.068 4.208-1.86a31.37 31.37 0 0 1 3.021-1.2q-7.629 8.922-14.8 18.167a19.3 19.3 0 0 0-5.4 1.169"/><path d="M39.264 10.587c-.243-.127-.487-.251-.73-.376l-.528.63q-5.24 6.327-10.322 12.766a62.415 62.415 0 0 1-1.951-1.252 2.31 2.31 0 0 1-1.076-1.137 2.553 2.553 0 0 1-.056-.407 1.509 1.509 0 0 0-.493-1.179 1.037 1.037 0 0 0-.273-.143Q28.3 13.857 32.868 8.3c.176-.213.356-.424.533-.637-.25-.119-.5-.235-.75-.352-.177.213-.355.424-.529.637q-4.705 5.706-9.278 11.506a6.69 6.69 0 0 1-4.558-1.206c-.108-.078-.215-.16-.322-.242a7.654 7.654 0 0 0-.7-.486q4.71-5.993 9.558-11.888c.178-.215.352-.433.529-.649-.257-.106-.514-.216-.773-.319-.179.216-.353.435-.531.651q-4.839 5.892-9.547 11.872a6.907 6.907 0 0 0-2.353-.174c-.256.012-.511.024-.763.026a9.32 9.32 0 0 1-3.118-.541 1.98 1.98 0 0 0-.139-.2q5.084-6.527 10.324-12.949c.184-.225.366-.451.551-.676-.278-.086-.557-.161-.834-.245l-.55.675q-5.085 6.24-10.023 12.58l-.014-.014a4.04 4.04 0 0 1-.468-.508 4.874 4.874 0 0 1-.576-1.217l-.247-.691a31.658 31.658 0 0 0-1.316-3.288q3.283-4.182 6.637-8.314c.19-.235.382-.468.573-.7-.3-.058-.593-.123-.89-.176A49.854 49.854 0 0 0 6.7.058a47.08 47.08 0 0 0-1-.03C5.4.022 5.1 0 4.788 0h-.495C1.815.03.484.493.1 1.461c-.4 1.032.45 2.3 1.628 3.568.181.195.368.388.561.581.167-.212.336-.421.5-.633Q4.429 2.9 6.082.84a48.47 48.47 0 0 1 6.629.645q-3.1 3.833-6.144 7.7c-.183.231-.364.464-.545.7.139.261.273.524.4.794.423.923.776 1.889 1.116 2.843l.25.694a5.476 5.476 0 0 0 .682 1.417 4.664 4.664 0 0 0 .556.609c.028.026.049.052.075.078a2.166 2.166 0 0 1 .509.653l.066.152.155.059a9.89 9.89 0 0 0 3.56.65c.262 0 .526-.014.792-.027a7.774 7.774 0 0 1 1.784.058 2.654 2.654 0 0 1 .669.208c.042.021.083.051.125.074a5.974 5.974 0 0 1 .715.486c.113.087.226.174.342.258a7.508 7.508 0 0 0 4.365 1.386 7.38 7.38 0 0 0 .83-.042c.081-.009.162-.017.243-.022a.615.615 0 0 1 .376.055c.116.087.144.289.174.611a3.4 3.4 0 0 0 .078.529 3.01 3.01 0 0 0 1.4 1.6c.612.412 1.251.818 1.9 1.217q.342.213.688.423c.167-.211.336-.42.5-.632q5.1-6.462 10.364-12.813c.174-.21.352-.419.525-.629M2.236 4.391C1.316 3.385.6 2.374.848 1.755.984 1.412 1.61.832 4.3.8h.485c.1 0 .2.008.3.009Q3.656 2.6 2.236 4.391"/><path d="m50.749 16.728-.721-.386-.525.628q-6.87 8.233-13.478 16.654a40.456 40.456 0 0 1-1.411-5.592l-.027-.17-.144-.1c-.191-.13-.391-.258-.588-.386q5.236-6.613 10.639-13.108l.524-.628-.719-.388-.525.627q-5.38 6.471-10.6 13.059c-.168.213-.339.425-.506.638.227.144.456.287.679.432.165.108.34.212.5.32a43.276 43.276 0 0 0 1.578 6.057q.149.46.3.917c.2-.254.392-.509.591-.762q6.8-8.7 13.9-17.189l.525-.628"/><path d="m56.542 19.739-.735-.368-.526.629q-8.592 10.254-16.759 20.809c-.193.249-.386.5-.578.746.111.29.227.576.343.864.187-.244.377-.486.565-.73q8.357-10.814 17.162-21.317l.528-.633"/><path d="M62.481 22.571q-.378-.169-.757-.344c-.179.211-.355.427-.533.638q-10.132 12.04-19.678 24.49c-.177.231-.349.464-.526.7q.215.381.431.759c.176-.231.349-.464.526-.7q9.692-12.668 20-24.9c.179-.212.355-.426.533-.638"/><path d="M148.066 41.897c-.279-.1-.56-.2-.842-.28a8.822 8.822 0 0 0-7.657.936 15.6 15.6 0 0 0-2.281 2.052 15.2 15.2 0 0 1-2.11 1.915c-.19.133-.387.243-.583.355a7.426 7.426 0 0 1-1.751.72 10.509 10.509 0 0 1-6.859-.773c-.255-.112-.507-.23-.757-.356-.183.2-.364.407-.546.609q-17.263 19.077-32.8 39.4a5.052 5.052 0 0 1-.163-1.076 11.828 11.828 0 0 1 .411-3.8l.081-.295-.27-.16-2.049-1.222q14.449-18.644 30.356-36.258l.537-.6c-.183-.2-.36-.4-.537-.6-.181.2-.359.4-.538.6q-15.989 17.7-30.509 36.445l-.494.637.244.146.448.267 1.875 1.12a12.6 12.6 0 0 0-.36 3.76 4.743 4.743 0 0 0 .388 1.792 2.645 2.645 0 0 0 .391.6c.028.033.062.058.092.089a4.718 4.718 0 0 0 1.339.883l.146.073a17.623 17.623 0 0 1 2.567 1.581c.238.177.444.344.637.507a8.018 8.018 0 0 1 .59.548c.13.135.252.271.363.409a11.285 11.285 0 0 1 .834 1.257c.2.325.392.65.609.962a13.547 13.547 0 0 0 1.725 1.947c.128.124.256.249.387.373.065.061.132.121.2.182l.485-.641a608.332 608.332 0 0 1 45.806-53.487l.6-.617M96.318 89.814a18.391 18.391 0 0 0-2.689-1.65l-.149-.075a3.742 3.742 0 0 1-1.186-.782c-.008-.01-.012-.022-.02-.032q15.688-20.544 33.155-39.834a12.085 12.085 0 0 0 6.491 1.158q-18.461 20.158-34.965 41.729a11.54 11.54 0 0 0-.643-.51m4.767 5.628a12.561 12.561 0 0 1-1.554-1.762c-.207-.3-.393-.607-.581-.918a12 12 0 0 0-.895-1.343 6.654 6.654 0 0 0-.5-.553q16.832-22.017 35.736-42.572a8.062 8.062 0 0 0 2.349-1.119 15.883 15.883 0 0 0 2.225-2.012 14.718 14.718 0 0 1 2.161-1.951 7.925 7.925 0 0 1 6.588-.959 608.977 608.977 0 0 0-45.529 53.188"/><path d="M157.043 50.958a31.78 31.78 0 0 0-.376-.764 23.95 23.95 0 0 0-1.824-3.07 14.528 14.528 0 0 0-1.373-1.645 15.92 15.92 0 0 0-.576-.557l-.553.573a602.534 602.534 0 0 0-46.525 54.256l-.484.64c.2.175.4.35.607.525l.484-.64a601.839 601.839 0 0 1 46.492-54.221 13.779 13.779 0 0 1 1.276 1.534 23.517 23.517 0 0 1 1.889 3.215 595.818 595.818 0 0 0-45.415 53.108l-.485.64c.2.18.395.366.587.553l.486-.642a595.352 595.352 0 0 1 45.192-52.886l.6-.619"/><path d="M159.615 57.474c-.07-.195-.143-.391-.212-.585l-.092-.253c-.205.215-.412.429-.617.645a589.266 589.266 0 0 0-43.767 51.565c-.167.223-.337.444-.5.667q.246.336.489.682l.505-.668a588.383 588.383 0 0 1 43.584-51.4l.616-.65"/><path d="M170.382 73.933a30.372 30.372 0 0 1-.609-.521c-.183.195-.368.388-.55.584a568.123 568.123 0 0 0-48.1 58.741 2.606 2.606 0 0 1-.7-.6 3.325 3.325 0 0 1-.433-1.108l-.068-.253a9.817 9.817 0 0 0-1.238-2.721 2.19 2.19 0 0 0 1.284-1.634 3.131 3.131 0 0 0-.136-1.446 5.42 5.42 0 0 0-.28-.731 6.766 6.766 0 0 1 .823-.426c.158-.073.317-.147.472-.227a2.7 2.7 0 0 0 1.258-1.108 2.074 2.074 0 0 0 .21-.883 574.65 574.65 0 0 1 43.037-51.63l.555-.589c-.17-.21-.338-.42-.5-.634-.184.2-.37.392-.554.589a575.5 575.5 0 0 0-42.718 51.16 3.357 3.357 0 0 0-.239-.528 8.17 8.17 0 0 0-.9-1.193c-.17-.2-.34-.4-.5-.6a13.637 13.637 0 0 1-1.116-1.838l-.465-.866a581.567 581.567 0 0 1 42.818-50.954l.582-.617c-.131-.251-.263-.5-.388-.757l-.582.618a582.173 582.173 0 0 0-42.849 50.935c-.177.236-.351.474-.527.71l.419.781.286.531a14.251 14.251 0 0 0 1.185 1.946c.167.218.346.427.525.636a7.424 7.424 0 0 1 .819 1.076 2.394 2.394 0 0 1 .326.945 1.368 1.368 0 0 1-.13.788 2.22 2.22 0 0 1-1.077.849c-.093.045-.186.09-.281.134a5.325 5.325 0 0 0-1.256.726l-.246.208.151.285c.1.187.182.364.251.534a3.137 3.137 0 0 1 .259 1.011 1.874 1.874 0 0 1-.021.432 1.247 1.247 0 0 1-1.06 1.071.568.568 0 0 1-.091 0l-.833-.09-.091-.01.05.066.506.666.006.007a8.955 8.955 0 0 1 1.486 2.99l.066.243a3.939 3.939 0 0 0 .56 1.374 3.292 3.292 0 0 0 .874.778c.1.066.2.13.3.193.129.081.252.162.372.243.155-.218.312-.433.467-.65a567.522 567.522 0 0 1 48.039-58.656l.55-.584"/><path d="M175.766 77.519c-.242-.127-.485-.263-.729-.394q-.287.3-.573.608a561.994 561.994 0 0 0-48.398 59.044l-.477.67q.275.31.539.628l.477-.677a561.044 561.044 0 0 1 48.584-59.274l.569-.6"/><path d="M360.65 713.572c-1.1-.969-2.2-1.931-3.285-2.915q-6.174-5.6-12.107-11.526c-1.215-1.215-2.4-2.452-3.6-3.683a6.053 6.053 0 0 0 .155-3.693 6.9 6.9 0 0 0-1.277-2l-.283-.349a16.549 16.549 0 0 1-3.163-6.992q5.874 6.523 12.108 12.776 11.106 11.106 23.092 21.032c.2.167.4.34.6.507a2.176 2.176 0 0 0 .2-.226 2.246 2.246 0 0 0 .221-.471 4.8 4.8 0 0 0 .164-1.806l-.257-5.573-.01-.225a7.694 7.694 0 0 1-.008-.839 2.268 2.268 0 0 1 .183-.824 3.384 3.384 0 0 1 2.3-1.45c.9-.255 1.81-.459 2.728-.623q.519-.094 1.042-.168c-.266-.223-.529-.448-.794-.671q-10.264-8.673-19.868-18.245-9.632-9.631-18.325-19.963a38.645 38.645 0 0 1 3.327-4.7q8.971 10.725 18.94 20.721a315.718 315.718 0 0 0 24.446 22q.6.489 1.21.974c.573.1 1.143.216 1.709.348a28.441 28.441 0 0 1 4 1.238l1.028.4-.53-.969c-.4-.726-.773-1.456-1.149-2.185s-.755-1.466-1.153-2.194a12.793 12.793 0 0 1-.589-1.172 11.92 11.92 0 0 1-.44-1.34l-.028-.094-.35-1.238-1.222-4.316a11.767 11.767 0 0 1-.644-4.51 4.654 4.654 0 0 1 .206-.875c-.216-.185-.436-.364-.651-.55q-8.372-7.227-16.261-15.108a300.977 300.977 0 0 1-26.449-30.239 19.88 19.88 0 0 0 1.522-5.736l.2-1.25a294.848 294.848 0 0 0 28.668 33.289q7.907 7.907 16.323 15.135c.214.184.432.363.646.546.254-.151.5-.288.749-.416a8.192 8.192 0 0 1 1.889-.743l.21-.049c.714-.163 1.389-.316 1.554-1.361a9.3 9.3 0 0 1 .449-1.679c.091-.256.191-.52.3-.794-.214-.183-.43-.361-.643-.544q-8.454-7.242-16.4-15.169a287.3 287.3 0 0 1-29.81-35.006l.054.03a8.75 8.75 0 0 0 3 1.218 5.142 5.142 0 0 0 3.888-1.167 283.9 283.9 0 0 0 26.801 30.983q7.21 7.21 14.846 13.821c.209.181.415.365.624.545.121-.247.239-.5.362-.742q.46-.917.939-1.818a.9.9 0 0 0 .34-.115l3.03-1.726.742-.423c-.217-.186-.439-.364-.655-.551q-7.8-6.716-15.154-14.067a276.338 276.338 0 0 1-28.574-33.538c.041-.368.079-.731.115-1.086l.507-5.057a4.264 4.264 0 0 0-.452-2.944 2.382 2.382 0 0 0-1.8-.954 3.726 3.726 0 0 0-2.83 1.09 5.623 5.623 0 0 0-.9 1.276q-3.812-5.675-7.324-11.513l-.6-1.018c-.09.386-.171.773-.251 1.16.2.337.412.669.616 1.005q3.436 5.675 7.156 11.2c-.176.416-.339.839-.49 1.26-.1.285-.206.57-.315.85a4.689 4.689 0 0 1-2.463 2.981q-2.42-3.524-4.731-7.111c-.262-.408-.534-.81-.794-1.219-.01.487-.01.973 0 1.459v.621a10.158 10.158 0 0 0 1.036 4.891 4.328 4.328 0 0 0 4.139 2.259 3.224 3.224 0 0 0 .348-.053 3.437 3.437 0 0 0 .475-.165 5.619 5.619 0 0 0 2.74-3.373c.111-.286.216-.577.322-.868.091-.254.183-.5.276-.747.115-.3.235-.6.369-.878a5.289 5.289 0 0 1 .967-1.457 2.972 2.972 0 0 1 2.2-.85 1.6 1.6 0 0 1 1.214.625 3.509 3.509 0 0 1 .3 2.395l-.508 5.058-.019.2c-.039.388-.082.786-.13 1.188q.34.471.682.941a277.052 277.052 0 0 0 28.155 32.951q7.269 7.27 14.978 13.922l-2.681 1.525-.238-.444-.354.657q-.513.953-1 1.923-7.521-6.532-14.645-13.641a283.187 283.187 0 0 1-26.779-30.959c-.164-.22-.332-.44-.495-.66a6.279 6.279 0 0 1-.6.535 4.383 4.383 0 0 1-3.283 1.029 8.016 8.016 0 0 1-2.719-1.124 16.712 16.712 0 0 0-1.489-.764 5.834 5.834 0 0 0-1.262-.4c.25.353.5.706.754 1.059a287.955 287.955 0 0 0 30.8 36.344q8.057 8.058 16.658 15.389a10.644 10.644 0 0 0-.587 2.107c-.078.492-.231.544-.94.706l-.218.05a9.512 9.512 0 0 0-2.361.966q-8.5-7.3-16.494-15.275a293.852 293.852 0 0 1-29.058-33.842c-.223-.3-.444-.609-.667-.915l-.176 1.118-.321 2.041a20.79 20.79 0 0 1-1.281 5.142q-.18.408-.4.8l.526.686a301.711 301.711 0 0 0 26.3 30.048q8.029 8.029 16.573 15.374a11.194 11.194 0 0 0 .573 5.322l.915 3.23q-11.424-9.411-22-19.983-10.06-10.06-19.066-20.91l.166-.157-.169-.277a12.987 12.987 0 0 0-3.495-3.865q-1.687-2.1-3.335-4.235c-.178-.229-.352-.46-.529-.69a7 7 0 0 0-.415.775 4.436 4.436 0 0 0-.3 3.233l.092.279h.294a6.242 6.242 0 0 1 3.66 1.262c.971 1.211 1.939 2.425 2.93 3.622.17.207.347.408.518.614q9.019 10.84 19.078 20.919a309.257 309.257 0 0 0 22.944 20.747l.28.991a10.087 10.087 0 0 0 1.124 2.773c.395.724.77 1.45 1.144 2.177.218.421.435.844.657 1.265a29.591 29.591 0 0 0-4.649-1.213 314.522 314.522 0 0 1-25.443-22.8q-10.006-10.006-18.985-20.779c-.173-.207-.351-.412-.524-.619-.176.206-.354.413-.525.619a40.028 40.028 0 0 0-3.345 4.678q-.221.366-.429.732l.549.65q8.648 10.223 18.185 19.793 9.367 9.367 19.4 17.85c-.724.147-1.443.318-2.155.52a4.106 4.106 0 0 0-2.8 1.884 2.621 2.621 0 0 0-.18.551q-9.375-8.057-18.2-16.862-8.714-8.714-16.683-17.988c-.208-.242-.41-.488-.617-.73-.1.305-.191.61-.274.917a22.867 22.867 0 0 0-.757 7.6q.049.689.141 1.366a17.729 17.729 0 0 0 3.544 8.625l.289.358a6.216 6.216 0 0 1 1.144 1.763 4.727 4.727 0 0 1-.052 2.756c-.074.295-.158.593-.245.9l-.058.2c-.432 1.482-.88 3.014-.271 4.473a6.757 6.757 0 0 0 3 2.849l13.452 8.108Zm-11.715-96.579a8.4 8.4 0 0 1-.907-3.844q1.878 2.893 3.83 5.744a3.741 3.741 0 0 1-2.923-1.9m-7.588 32.949a3.577 3.577 0 0 1 .183-1.961c.624.8 1.246 1.61 1.878 2.408a6.436 6.436 0 0 0-2.061-.447m-4.007 23.128q7.832 9.066 16.369 17.611 9.038 9.038 18.679 17.272c0 .178.009.35.016.512l.267 5.8a5.374 5.374 0 0 1-.045 1.194q-11.85-9.841-22.86-20.833-6.68-6.679-12.918-13.692a21.752 21.752 0 0 1 .491-7.861m6.512 29.443a5.93 5.93 0 0 1-2.677-2.472 5.6 5.6 0 0 1 .233-3.706c1.092 1.123 2.175 2.254 3.284 3.363a350.33 350.33 0 0 0 9.3 8.93Z"/><path d="M456.617 219.452c.254-.134.509-.264.764-.4-.216-.185-.427-.376-.628-.577s-.4-.4-.577-.617-.355-.445-.528-.672a7.556 7.556 0 0 0-1.664-1.754 2.625 2.625 0 0 0-3.422.179 3.625 3.625 0 0 0-.348.541 1.406 1.406 0 0 1-.456.581.79.79 0 0 1-.908-.345c-.006-.009-.017-.016-.023-.025a2.006 2.006 0 0 1-.269-.729 7.34 7.34 0 0 1-.091-.7l-.412-4.358-.17-.1a5.141 5.141 0 0 1-.6-.446q-.314-.266-.621-.573a43.182 43.182 0 0 1-.469-.478 7.482 7.482 0 0 0-2.568-1.986c-.089-.034-.182-.048-.272-.074l3.527-.312c.935-.084 1.5-.5 1.524-1.12a1.416 1.416 0 0 0-.218-.714l-.055-.1a3.952 3.952 0 0 1-.219-1.949l.01-.233a8.3 8.3 0 0 0 0-.9 4.269 4.269 0 0 0-.06-.492 1.4 1.4 0 0 0-.388-.79 1.473 1.473 0 0 0-.632-.307 9.763 9.763 0 0 0-4-.247 1.413 1.413 0 0 0-.958.452 1.29 1.29 0 0 0-.036 1.394c.042.087.089.174.135.26a1.652 1.652 0 0 1 .223.548c.045.43-.378.809-.826 1.21-.091.082-.181.163-.267.243a3.037 3.037 0 0 0-1.059 1.983 1.2 1.2 0 0 0 .094.488 1.086 1.086 0 0 0 .182.276c-.083.046-.165.09-.247.137l-1.763.065-.377.014a1.19 1.19 0 0 1-.483-.041 1.046 1.046 0 0 1-.3-.237 8.442 8.442 0 0 1-1.743-2.6 25.669 25.669 0 0 0 4.927-1.845l1.255-.623-1.394-.135a92.084 92.084 0 0 0-3.116-.239c-.5-.03-1.007-.052-1.51-.075a92.441 92.441 0 0 0-9.8.059 9.228 9.228 0 0 0-1.643.224 3.248 3.248 0 0 0-1.81 1.04c-.04.047-.07.1-.107.153-1.01.629-2.027 1.246-3.029 1.887l-1.433.513c-.521.187-1.049.362-1.574.5a5.137 5.137 0 0 1-3.549-.031 6.814 6.814 0 0 1-2.066-1.794 22.336 22.336 0 0 0-.665-.721q-.287-.3-.6-.564c-.228.154-.455.311-.682.464a313.541 313.541 0 0 0-107.324 125.042 11.312 11.312 0 0 1-3.328-1.909c-.3-.264-.434-.475-.436-.665 0-.262.261-.509.54-.772.1-.1.2-.192.295-.29a4.079 4.079 0 0 0 .52-4.161 319.177 319.177 0 0 1 100.133-117.35l1.4-1-1.711.23-3.83.515a23.2 23.2 0 0 0 .01-.7c0-.373 0-.746.036-1.129a1.3 1.3 0 0 0-.115-.784 1.4 1.4 0 0 0-.721-.537 3.674 3.674 0 0 1-.669-.412 5.652 5.652 0 0 1-.614-.544c-.279-.28-.548-.583-.821-.9a9.174 9.174 0 0 0-1.851-1.777 2.356 2.356 0 0 0-.882-.383 3.152 3.152 0 0 0-.869.006c-.312.03-.626.041-.939.061-.482.033-.963.057-1.447.064s-.988.014-1.479 0a.694.694 0 0 1-.227-.031.723.723 0 0 1-.147-.238l-1.848-3.929-.347-.738-.473-1.007-2.821 2.41a1.014 1.014 0 0 0-.389 1.164l.042.21.174.876.4 2a22.517 22.517 0 0 0-4.235 1.871l-.361.208a8.637 8.637 0 0 1-2.34 1.076 2.891 2.891 0 0 1-.923.065l-.392-.035-.042.391c-.026.24-.045.483-.065.724a28.75 28.75 0 0 0-.07 3.9 4.927 4.927 0 0 0 .741 2.712c.01.014.025.026.035.041a5 5 0 0 0 .544.589c.059.058.119.117.179.173.46.431.858.8.882 1.287a2.188 2.188 0 0 1-.226.87l-.976 2.411a.726.726 0 0 1-.093.182.7.7 0 0 1-.146.046c-.053.014-.106.027-.155.044a2.213 2.213 0 0 0-.487.246 1.341 1.341 0 0 1-.336.172.994.994 0 0 1-.67-.16 5.442 5.442 0 0 1-1.883-1.963 19.57 19.57 0 0 1-.384-.636l-.034-.059a7.416 7.416 0 0 1-.874-1.969 2.62 2.62 0 0 1 .233-1.966 4.21 4.21 0 0 1 .91-.927 4.008 4.008 0 0 0 1.7-3.653l.034-.475.077-1.09.087-1.226a1.185 1.185 0 0 0-.152-.78 1.289 1.289 0 0 0-.7-.43 2.1 2.1 0 0 1-1.189-1.152 11.135 11.135 0 0 0 3.114-.613 2.011 2.011 0 0 0 .967-.6 2.271 2.271 0 0 0 .382-.961 11.109 11.109 0 0 1 1.915-4.117l.739-.987-.746.231-.432.134a1.061 1.061 0 0 1-.841-.167 6.447 6.447 0 0 1-.817-.609 7.5 7.5 0 0 0-.86-.645 4.037 4.037 0 0 0-4.253.432 12.177 12.177 0 0 0-2.221 2.168c-.227.263-.453.525-.687.78a16.884 16.884 0 0 1-8.606 4.948 16.94 16.94 0 0 1-1.546.285 16 16 0 0 1-3.651.082l-.362-.034-.069.356c-.053.275-.472.413-1.248.413h-.231a9.587 9.587 0 0 0-7.714 4.264 11.608 11.608 0 0 0-1.617 8.609 4.4 4.4 0 0 1-2.363.987l-.227.018a3.084 3.084 0 0 0-.9.163 3.154 3.154 0 0 0-1.475 1.589c-.074.131-.147.26-.223.384a5.29 5.29 0 0 1-5.44 2.356 7.345 7.345 0 0 1-1.9-.731 23.08 23.08 0 0 1-.725-.4c-.189.2-.381.392-.57.59a368.415 368.415 0 0 0-4.746 5.1c.038-.126.07-.255.12-.379a1.482 1.482 0 0 0 .149-.982c-.186-.677-.889-.785-1.4-.863-.139-.022-.276-.042-.4-.074-.6-.149-1.006-.716-1.434-1.317a9.86 9.86 0 0 0-.594-.76q1.711-1.858 3.448-3.7l.562-.6q-.354-.21-.714-.408a7.69 7.69 0 0 0-4.989-1.235 1.469 1.469 0 0 0-.827-.722 2.177 2.177 0 0 0-.537-.149c-.127-.016-.26-.022-.388-.036a40.077 40.077 0 0 0-2.234-.21 4.232 4.232 0 0 0-1.6.119 4.41 4.41 0 0 0-1.675 1.192c-.181.179-.363.358-.554.52a8.463 8.463 0 0 1-3.991 1.573l-.119.023-.371.074a6.631 6.631 0 0 0-1.458.447c-.1.045-.2.084-.29.138a6.765 6.765 0 0 0-.666.452c-.15.111-.3.222-.458.322a3.871 3.871 0 0 1-4.568-.418 1.736 1.736 0 0 0-1.29-.631.952.952 0 0 0-.243.065 1.346 1.346 0 0 0-.521.433 1.254 1.254 0 0 1-.175.186.341.341 0 0 1-.315.052.88.88 0 0 1-.3-.149 1.23 1.23 0 0 1-.392-.438 4.826 4.826 0 0 1-.266-.718 3.809 3.809 0 0 0-.523-1.177 3.854 3.854 0 0 0-.995-.871 5.48 5.48 0 0 1-.283-.2 6.925 6.925 0 0 1-1.089-1.027c-.178-.2-.352-.411-.517-.628l-.532.621q-3.443 4.025-6.771 8.135a7.374 7.374 0 0 1-.428-.661c.03-.326.054-.713.077-1.1.026-.423.05-.846.086-1.184a1.987 1.987 0 0 0-.142-1.2 2.1 2.1 0 0 0-1.493-.857c-.332-.08-.657-.179-.979-.289q3-3.665 6.1-7.263c.174-.2.346-.406.521-.608-.2-.184-.392-.365-.589-.544l-.395-.356a35.953 35.953 0 0 1-1.53-1.422 10 10 0 0 1-1.829-2.408 6.076 6.076 0 0 1-.352-.812 5.069 5.069 0 0 1-.272-1.224 2.412 2.412 0 0 1 .413-1.717c.074-.087.157-.165.239-.244a3.451 3.451 0 0 0 .363-.387 3.218 3.218 0 0 0 .254-2.715 5.707 5.707 0 0 1-.157-1.45 2.244 2.244 0 0 1 1.863-1.978l.442-.062-.111-.432c-.1-.389-.2-.807-.3-1.236-.071-.323-.136-.65-.186-.98a6.736 6.736 0 0 1-.031-2.17 9.9 9.9 0 0 1 .369-1.321c.085-.258.169-.515.243-.774a19.044 19.044 0 0 0 .524-3.265c.071-.706.158-1.425.285-2.13.03-.167.05-.34.087-.5l.081-.341c.049-.2.1-.412.136-.625.024-.126.048-.251.064-.38a8.638 8.638 0 0 0 .019-1.316l-.138-3.669a2.294 2.294 0 0 0-.179-.942 1.661 1.661 0 0 0-.729-.718 5.221 5.221 0 0 0-.758-.329l-.03-.011-.07-.026a8.282 8.282 0 0 1-2.983-1.908c-.163-.163-.32-.333-.476-.5a9.9 9.9 0 0 0-.966-.935c-.075-.062-.142-.132-.221-.19-.143-.1-.3-.185-.447-.272-.191.2-.379.394-.569.59q-11.488 11.849-21.964 24.449c-.093-.137-.2-.267-.287-.406l-.323-.5a9.992 9.992 0 0 0-2.478-2.97c.057-.084.1-.171.144-.245a1.672 1.672 0 0 1 .15-.251 1 1 0 0 1 .291.118.876.876 0 0 0 1.048.014l.1-.087.027-.128a2.044 2.044 0 0 0-.657-1.861q8.921-10.547 18.559-20.572l.646-.669c-.093-.023-.2-.054-.284-.074a2.355 2.355 0 0 0-.691-.069 1.311 1.311 0 0 0-.159 0 2.176 2.176 0 0 0-.686.286l-.119.067a7.445 7.445 0 0 1-3.863.532 3.333 3.333 0 0 1-1.322-.227c-.1-.048-.189-.106-.28-.163a3.477 3.477 0 0 0-.432-.241 2.1 2.1 0 0 0-.935-.147 3.349 3.349 0 0 0-1.475.436c-.03.017-.058.038-.088.055-.22.126-.435.262-.648.4a6.463 6.463 0 0 1-1.072.612 6.166 6.166 0 0 1-1.581.342c-1.444.178-2.9.32-4.336.423a6.127 6.127 0 0 1-1.531-.024 2.768 2.768 0 0 1-.327-.074 3.283 3.283 0 0 1-.5-.207c-.174-.087-.348-.186-.526-.287a5.455 5.455 0 0 0-1.306-.6 2.977 2.977 0 0 0-2.464.447c-.077.054-.152.114-.227.173a1.887 1.887 0 0 1-.423.279c-.131.053-.279.029-.305-.015a3.564 3.564 0 0 0-.8-.786c-.086-.07-.164-.133-.225-.187a1.046 1.046 0 0 0-.215-.145.6.6 0 0 0-.231-.078.8.8 0 0 0-.67.334l-.683.8c-.092-.048-.188-.093-.283-.139l-.038-.018c-.516-.246-.831-.415-.855-.7a.865.865 0 0 1 .063-.328 2.771 2.771 0 0 1 2.78-1.788l.465.043-.029-.466a5.7 5.7 0 0 1 .723-3.12c.118-.209.251-.412.383-.614a4.932 4.932 0 0 0 .857-4.249 10.583 10.583 0 0 1-.1-1.55c0-.081.01-.163.016-.245 0-.059.006-.118.011-.177a5.365 5.365 0 0 0 0-1.015c0-.04 0-.079-.007-.119a4.84 4.84 0 0 0-.207-.766 3.755 3.755 0 0 1-.183-.686 3.987 3.987 0 0 1 .709-2.243l.09-.166a1.01 1.01 0 0 0 .143-.729.932.932 0 0 0-1.037-.612c-.063 0-.127.01-.19.018l-.051.006a.588.588 0 0 1 .457-.169 1.5 1.5 0 0 1 .937.79c.072.114.14.232.209.35a4.16 4.16 0 0 0 .766 1.047l.426.389.215-.536c.382-.951.714-1.886 1.036-2.79s.646-1.818 1.02-2.75c.581-1.442 1.06-2.851.6-4.231 0-.017-.007-.033-.013-.05a5.981 5.981 0 0 0-.243-.577l-.078-.175a3.019 3.019 0 0 1-.184-.491 3.963 3.963 0 0 1 .753-2.74l3.6-6.518a6.013 6.013 0 0 0 .977-3.166 2.593 2.593 0 0 0-.237-.885c-.02-.045-.03-.092-.054-.136a3.365 3.365 0 0 0-3.013-1.55h-.008a10.332 10.332 0 0 0-2.206.316c-.312.067-.624.135-.938.191-.22.038-.445.054-.669.08-.408.046-.818.076-1.231.088-.276.271-.549.544-.824.814-.913.9-1.828 1.8-2.734 2.7a482.609 482.609 0 0 0-37.309 41.906c-.167.211-.337.422-.5.634.233.135.466.273.7.4.167-.212.337-.423.505-.635a481.76 481.76 0 0 1 37.172-41.744q1.658-1.657 3.332-3.293a13.724 13.724 0 0 0 1.7-.17c.325-.055.649-.126.972-.2a9.579 9.579 0 0 1 2.034-.3h.007a2.579 2.579 0 0 1 2.306 1.124 1.749 1.749 0 0 1 .141.362q-3.3 3.175-6.547 6.412a476.255 476.255 0 0 0-36.29 40.693l-.5.629c.222.151.445.3.665.451l.5-.629a475.815 475.815 0 0 1 36.191-40.577q2.963-2.962 5.975-5.86a7.508 7.508 0 0 1-.814 1.945l-3.6 6.517a3.611 3.611 0 0 0-.517 4.131c.015.034.028.068.043.1a469.558 469.558 0 0 0-32.793 37.064l-.5.627c.214.161.428.319.642.479l.5-.627a468.464 468.464 0 0 1 32.433-36.689 6.469 6.469 0 0 1-.689 3.266c-.381.948-.712 1.88-1.032 2.781-.247.694-.5 1.4-.776 2.125-.074-.118-.147-.242-.22-.368s-.147-.254-.225-.377a2.23 2.23 0 0 0-1.494-1.152 1.378 1.378 0 0 0-1.192.445 1.037 1.037 0 0 0-.252.969l.047.174.161.08a1.373 1.373 0 0 0 .8.082l.156-.014a.39.39 0 0 1 .042 0c.094 0 .162.02.163 0a.6.6 0 0 1-.073.171l-.087.163a4.61 4.61 0 0 0-.8 2.726 4.424 4.424 0 0 0 .217.834 4.147 4.147 0 0 1 .176.639 3.79 3.79 0 0 1 0 .853q-11.887 12.824-22.707 26.42l-.5.635c.244.126.5.238.75.343a9.732 9.732 0 0 0 2.252.634c.329.049.661.081.993.112a11.318 11.318 0 0 1 1.486.208 7.629 7.629 0 0 1 1.281.441c.254.109.5.224.751.343.172-.214.347-.427.519-.64q5.79-7.17 11.89-14.12l.264.172 1.127-1.314.006-.008c.064.055.14.117.222.183a3.411 3.411 0 0 1 .613.577 1.051 1.051 0 0 0 1.289.346 2.516 2.516 0 0 0 .622-.395c.064-.05.128-.1.194-.147a2.2 2.2 0 0 1 1.8-.327 4.778 4.778 0 0 1 1.114.521 7 7 0 0 0 .373.2q-7.271 8.1-14.114 16.512l-.541.663c.272.092.544.187.813.271l.548-.672q6.817-8.368 14.062-16.431c.014 0 .026.012.041.017a5.8 5.8 0 0 0 2.154.132c1.446-.1 2.919-.247 4.377-.428a8.263 8.263 0 0 0 1.487-.294q-8.221 8.912-15.911 18.213c-.2.245-.4.492-.605.738.32.034.633.07.941.114a8.786 8.786 0 0 1 1.438.3c.275.087.548.192.82.3a6.127 6.127 0 0 0 2.024.53l.689.023-.321-.609a.406.406 0 0 1-.011-.314.778.778 0 0 1 .376-.434 2.127 2.127 0 0 1 1.281-.047 4.478 4.478 0 0 1 .943.277q-.8.95-1.593 1.908h.952a1.393 1.393 0 0 0 .159-.256 1.134 1.134 0 0 1 .675-.631q-.634.756-1.265 1.514l.246.129a7.99 7.99 0 0 1 2.706 3.014l.328.512c.135.207.285.4.425.606.158.227.312.456.476.678l.533-.637q10.564-12.718 22.167-24.679a8.4 8.4 0 0 1 .932.9c.164.179.328.356.5.527a9.086 9.086 0 0 0 3.021 1.985q-11.968 12.3-22.828 25.421l-.518.624c.2.177.409.343.615.513.168-.2.338-.406.507-.609q10.943-13.226 23.025-25.624a1.129 1.129 0 0 1 .6.466 1.653 1.653 0 0 1 .1.623l.138 3.669a7.888 7.888 0 0 1-.015 1.192 7.75 7.75 0 0 1-.183.911l-.084.352c-.022.1-.033.2-.053.307q-9.813 10.313-18.846 21.2c-.172.207-.347.413-.519.621.243.127.483.258.729.376-.172.208-.346.416-.517.625a5.827 5.827 0 0 0-1.056 1.069l-.978 1.3.165-.078 1.305-.623a.492.492 0 0 1 .431.018 1.076 1.076 0 0 1 .557.668 3.5 3.5 0 0 1-.085 1.543l-.063.329a9.907 9.907 0 0 0 0 3.537 1.218 1.218 0 0 0 .2.507.635.635 0 0 0 .064.085 1.139 1.139 0 0 0 .614.286l.041.01a7.28 7.28 0 0 1 4 2.452l.151.181.232-.043a2.182 2.182 0 0 0 1.643-1.759 3.126 3.126 0 0 0 .016-1.112c.09.132.177.273.26.409.107.175.231.338.348.506.157.228.318.452.49.667q.256-.316.514-.631 3.4-4.155 6.906-8.227a11.216 11.216 0 0 0 1.819 2.322c.5.508 1.043.99 1.564 1.455l.408.367q-3.193 3.712-6.287 7.495l-.528.648c.254.115.514.218.776.316a12 12 0 0 0 1.338.42c.4.1.818.2.963.461a1.334 1.334 0 0 1 .047.731c-.037.348-.062.784-.089 1.22s-.051.853-.087 1.192l-.013.126.062.111a8.542 8.542 0 0 0 .673 1.013c.164.218.335.43.518.632a9.193 9.193 0 0 0 4.8 2.8l.094.021.727.159-.328-.649.458-.563.962.088 4.546.415a1.681 1.681 0 0 1 .761.186c.279.193.36.592.454 1.054.006.029.013.058.018.088a3.663 3.663 0 0 0 .285.908 1.67 1.67 0 0 0 .285.424 2.629 2.629 0 0 0 1.021.589c1.295.49 2.771.884 3.893.084.054-.038.106-.079.16-.121a.826.826 0 0 1 .354-.206c.015 0 .057 0 .115.055a.627.627 0 0 1 .157.432 1.766 1.766 0 0 1-.049.331c-.019.082-.04.167-.062.253a3.963 3.963 0 0 0-.13.637 2.034 2.034 0 0 0 .03.554 2.3 2.3 0 0 0 .729 1.285 3.3 3.3 0 0 0 2.7.809 7.46 7.46 0 0 0 3.754-2.427 1.541 1.541 0 0 0 .588-1.2c-.077-.762-.825-.959-1.371-1.1a3.545 3.545 0 0 1-.587-.188 1.434 1.434 0 0 1-.681-1.262 4.173 4.173 0 0 1 .293-1.439 3.232 3.232 0 0 0 2.176-1.172l3.435-3.446a2.02 2.02 0 0 1 .633-.493 2.04 2.04 0 0 1 .814-.049 6.8 6.8 0 0 1 3.482.876 2.813 2.813 0 0 1 .332.271 3.7 3.7 0 0 1 .247.281c.165.2.324.406.486.633a3.5 3.5 0 0 0 1.892 1.629c.148.037.311.062.474.087.424.065.706.121.751.285a1.057 1.057 0 0 1-.141.52 5.066 5.066 0 0 0-.356 1.7 5.411 5.411 0 0 0 .072 1.125 5.256 5.256 0 0 0 1.514 2.932 9.826 9.826 0 0 0 .99.8c.271.2.543.4.794.626.053.047.095.111.145.163a4.287 4.287 0 0 1 .509.632c.185-.206.366-.416.552-.621q6.041-6.689 12.444-13.108 8.643-8.643 17.8-16.606a17.771 17.771 0 0 0 10.386-5.446c.239-.26.471-.529.7-.8a11.451 11.451 0 0 1 2.057-2.021 3.273 3.273 0 0 1 3.384-.405 6.79 6.79 0 0 1 .764.577c.208.172.427.349.654.508a347.04 347.04 0 0 0-31.816 28.145q-7.09 7.09-13.7 14.539l-.6.678a4.777 4.777 0 0 1-.426 3.971l-.078.123a1.635 1.635 0 0 0-.293 1.8l.047.132a5.494 5.494 0 0 1 .137 2.022 6.872 6.872 0 0 0 .111 2.1c.01.041.029.077.041.117a5.784 5.784 0 0 0 .331.848c.054.115.106.231.16.342a4.281 4.281 0 0 1 .541 1.574 4.6 4.6 0 0 1-.418 1.791 3.836 3.836 0 0 0-.319 2.673 2.864 2.864 0 0 0 .967 1.212 6.122 6.122 0 0 0 .662.454 9.224 9.224 0 0 0 .879.463 38.523 38.523 0 0 1-4.735 5.823 3.56 3.56 0 0 1-1.989 1.245h-.12a4.855 4.855 0 0 1-.559-.027 7.472 7.472 0 0 0-.405-.031 2.888 2.888 0 0 0-.537.018c-1.412.2-2.23 1.684-2.415 3.066-.04.3-.059.6-.074.895l-.021.45c-.014.352-.03.693-.063 1.026a4.751 4.751 0 0 1-.249 1.185 2.343 2.343 0 0 1-1.311 1.335 1.435 1.435 0 0 1-.328.071 1.036 1.036 0 0 1-.65-.125l-.175-.1c-.136.189-.275.376-.412.565l.019.043a1.6 1.6 0 0 1-.039 1.286 2.369 2.369 0 0 1-.163.282 2.509 2.509 0 0 1-.234.321 2.688 2.688 0 0 1-1.112.8 3.645 3.645 0 0 1-.509.138 8.579 8.579 0 0 1-3.354-.248l-.266-.055-.15.227a44.956 44.956 0 0 0-5.631 12.1 2.914 2.914 0 0 1-.853 1.62 2.719 2.719 0 0 1-.523.26 3.61 3.61 0 0 0-.633.315c-1.288.855-1.124 2.626-.545 4.051.059.147.119.293.185.43l.039.079.179.37c.541 1.13 1.036 2.35.478 3.284a4.057 4.057 0 0 1-.376.494 2.3 2.3 0 0 0-.689 1.383c-.029.994.971 1.618 1.4 1.885l1.1.689.68.424.637.4a2.43 2.43 0 0 0 1.767.5 2.327 2.327 0 0 0 1-.609 2.921 2.921 0 0 1 .447-.35 1.13 1.13 0 0 1 1.065.014 1.166 1.166 0 0 1 .638.726 21.527 21.527 0 0 1-10.371 9.69 4.882 4.882 0 0 0-1.526 1.1 5.538 5.538 0 0 0-1.418 2.693 4.892 4.892 0 0 0-.035 1.932 9.9 9.9 0 0 0 1.548 3.314c.272.434.555.883.794 1.33a6.521 6.521 0 0 1 .3.653 5.774 5.774 0 0 1 .327 1.144 2.86 2.86 0 0 1-.562 2.522c-.081.086-.17.17-.26.255a1.921 1.921 0 0 0-.791 1.363 1.788 1.788 0 0 0 .7 1.253 11.926 11.926 0 0 0 3.524 2.041q.372.151.746.3c.115-.243.226-.488.34-.73A312.786 312.786 0 0 1 409.23 203.32c.25.251.493.52.741.8a7.5 7.5 0 0 0 2.326 1.988 4.643 4.643 0 0 0 2.225.4A306.865 306.865 0 0 0 307.04 330.58c-.117.247-.23.5-.347.744a5.473 5.473 0 0 1 .6.613 5.051 5.051 0 0 1 .476.68 9.823 9.823 0 0 1 .671 1.534c.123.33.247.659.388.981a14.563 14.563 0 0 0 1.787 2.876q.276.364.556.719c.124-.275.251-.548.376-.822a299.589 299.589 0 0 1 124.242-136.073c.95.046 1.9.1 2.844.176a24.869 24.869 0 0 1-3.845 1.268l-.436.106.155.421a9.26 9.26 0 0 0 2.09 3.3 1.833 1.833 0 0 0 .52.392 293.911 293.911 0 0 0-121.734 135.513c-.125.283-.247.566-.372.85.182.254.358.512.539.767q.186-.429.375-.859a293.089 293.089 0 0 1 122.621-136.167l2.279-.085a6.589 6.589 0 0 1 2.524.227 6.822 6.822 0 0 1 2.274 1.795c.1.108.211.217.318.325a287.454 287.454 0 0 0-126.316 139.362c-.073.172-.152.342-.225.515-.053.125-.1.251-.154.376.176.274.355.547.529.822.123-.295.238-.593.362-.887l.008-.018a286.714 286.714 0 0 1 126.401-139.59 6.823 6.823 0 0 0 .752.6l.376 3.967a6.392 6.392 0 0 0 .163 1.025 282.087 282.087 0 0 0-124.141 139.84c-.129.317-.254.635-.381.953.17.3.336.6.5.9l.382-.955a281.248 281.248 0 0 1 123.949-139.992l.015.03a1.6 1.6 0 0 0 1.975.634 2.044 2.044 0 0 0 .778-.9 2.936 2.936 0 0 1 .268-.424 1.847 1.847 0 0 1 2.35-.028 6.85 6.85 0 0 1 1.481 1.579c.18.237.36.473.549.7.143.171.3.325.454.486a275.578 275.578 0 0 0-128.428 144.513c-.142.369-.274.742-.413 1.112q.223.575.422 1.164c.146-.39.288-.78.434-1.168a274.688 274.688 0 0 1 128.586-145.025M230.946 177.78a9 9 0 0 0-1.621-.576 11.906 11.906 0 0 0-1.591-.225c-.318-.03-.636-.06-.951-.107a8.864 8.864 0 0 1-1.853-.492q10.464-13.127 21.932-25.539c.019.342.05.682.087 1.015a4.186 4.186 0 0 1-.732 3.724c-.141.216-.282.433-.408.656a6.523 6.523 0 0 0-.837 3.13 3.575 3.575 0 0 0-3.156 2.33 1.606 1.606 0 0 0-.1.66c.058.688.626 1.021 1.144 1.273q-6.1 6.967-11.908 14.152m19.958 3.836a2.846 2.846 0 0 0-1.786.116 1.565 1.565 0 0 0-.785.9 1.325 1.325 0 0 0-.06.287 7.871 7.871 0 0 1-1.268-.415 12.835 12.835 0 0 0-.872-.318 8.464 8.464 0 0 0-1.082-.251q8.289-10.011 17.2-19.572a2.037 2.037 0 0 1 1.671-.242 2.61 2.61 0 0 1 .329.187c.115.072.231.143.352.2a4.021 4.021 0 0 0 1.647.309 10.042 10.042 0 0 0 3.526-.312q-9.093 9.532-17.55 19.535a5.023 5.023 0 0 0-1.321-.431m14.261 21.677.061-.318a4.135 4.135 0 0 0 .074-1.9 1.9 1.9 0 0 0-1-1.188c-.022-.011-.046-.02-.069-.03a5.115 5.115 0 0 1 1.7-1.076l.924-.35-.907-.392c-.27-.117-.532-.255-.8-.38q8.585-10.334 17.879-20.156c-.041.342-.08.685-.114 1.021a18.3 18.3 0 0 1-.5 3.128c-.07.249-.151.5-.232.742a10.712 10.712 0 0 0-.4 1.429 8.379 8.379 0 0 0 .137 3.054q-8.719 9.558-16.778 19.594a9.1 9.1 0 0 1 .013-3.172m7.309 4.271c-.063-.094-.134-.184-.194-.282-.339-.553-.8-1.31-1.615-1.381l-.661-.058.256.612a3.061 3.061 0 0 1 .278 1.792 1.478 1.478 0 0 1-.8 1.066 8.1 8.1 0 0 0-3.9-2.423q7.013-8.728 14.532-17.095a2.783 2.783 0 0 0-.265.962 6.25 6.25 0 0 0 .169 1.664c.161.83.3 1.547-.1 2.078a2.6 2.6 0 0 1-.279.293 4.073 4.073 0 0 0-.3.3 3.125 3.125 0 0 0-.6 2.306 5.971 5.971 0 0 0 .473 1.842q-3.557 4.116-6.991 8.318m13.221 11.828-.126.233a1.608 1.608 0 0 0-.191.761 8.425 8.425 0 0 1-3.846-2.484q3.332-4.12 6.785-8.156a7.518 7.518 0 0 0 1.14 1.062c.1.073.2.143.3.212a2.291 2.291 0 0 1 1.207 1.628 5.449 5.449 0 0 0 .315.838 2.014 2.014 0 0 0 .584.69q-2.267 2.666-4.481 5.371Zm7.8.933a2.3 2.3 0 0 0-1.142-.324l-4.005-.363q2.119-2.579 4.286-5.124a1.145 1.145 0 0 0 .858-.211 1.906 1.906 0 0 0 .307-.313.769.769 0 0 1 .211-.205c.161-.071.475.224.7.429a4.7 4.7 0 0 0 4.8.851q-2.714 3.121-5.352 6.3a1.749 1.749 0 0 0-.659-1.033m6.695 2.965a.98.98 0 0 0-.709-.287 1.412 1.412 0 0 0-.816.375l-.134.1c-.811.58-1.991.255-3.144-.182a1.96 1.96 0 0 1-.725-.392 1.317 1.317 0 0 1-.279-.574q3.592-4.332 7.324-8.566a8.138 8.138 0 0 1 1.486-.387l.12-.023a9.375 9.375 0 0 0 4.355-1.747c.207-.174.4-.368.6-.56a3.757 3.757 0 0 1 1.361-1 3.555 3.555 0 0 1 1.3-.081c.538.034 1.064.1 1.593.15q-6.2 6.677-12.046 13.619a1.31 1.31 0 0 0-.286-.444m4.849.677a4.182 4.182 0 0 0 .726.239c.534.141.76.229.778.409.016.159-.17.368-.355.55a6.707 6.707 0 0 1-3.327 2.206 2.484 2.484 0 0 1-2.017-.607 1.424 1.424 0 0 1-.505-1.176 3.272 3.272 0 0 1 .107-.508l.02-.084q1.8-2.151 3.635-4.28a4.173 4.173 0 0 0-.2 1.284 2.2 2.2 0 0 0 1.139 1.968m7.067-9.384a2.7 2.7 0 0 0-1.153.1 2.732 2.732 0 0 0-.926.686l-3.424 3.436c-.474.475-1.076.988-1.643.923q4.195-4.822 8.564-9.515c.315.046.748.235.726.52l-.043.563.545-.146a6.419 6.419 0 0 1 4.634.97q-1.667 1.765-3.31 3.549a7.238 7.238 0 0 0-3.971-1.084m23.566-.934q-6.389 6.391-12.406 13.063c-.051-.05-.091-.112-.144-.159a11.75 11.75 0 0 0-.852-.672 9.427 9.427 0 0 1-.913-.734 4.534 4.534 0 0 1-1.328-3.174q2.789-3.062 5.652-6.07a8.473 8.473 0 0 0 2.311.921 6.1 6.1 0 0 0 6.288-2.722c.08-.132.158-.27.236-.408a2.508 2.508 0 0 1 1.065-1.234 2.411 2.411 0 0 1 .677-.111l.247-.02a5.144 5.144 0 0 0 .641-.117c-.489.483-.987.952-1.474 1.438m3.833-3.742a10.732 10.732 0 0 1 1.566-7.526 8.761 8.761 0 0 1 7.159-3.908c.424.008 1.606.026 2.028-.713a16.891 16.891 0 0 0 2.407 0q-6.716 5.89-13.16 12.15m31.748-5.663a28.011 28.011 0 0 1 .092-4.13 7.258 7.258 0 0 0 3.342-1.259l.356-.205a21.791 21.791 0 0 1 4.418-1.91l.346-.107-.616-3.093-.139-.7a1.411 1.411 0 0 1-.023-.187c.757-.577 1.5-1.165 2.266-1.736l.348.742 1.776 3.778a1.041 1.041 0 0 0 1.068.728c.146.006.294 0 .44 0q-6.667 5-13.09 10.355a4.225 4.225 0 0 1-.586-2.279m-45.189 37.222a6.183 6.183 0 0 0-.178-2.317l-.053-.15a1.418 1.418 0 0 1-.1-.381 1.434 1.434 0 0 1 .314-.715l.084-.131a5.473 5.473 0 0 0 .643-4.2q6.757-7.6 13.975-14.85a346.315 346.315 0 0 1 32.04-28.309c.026.008.05.022.077.03a12.028 12.028 0 0 0-1.619 3.824 1.55 1.55 0 0 1-.216.594 1.334 1.334 0 0 1-.605.34 10.362 10.362 0 0 1-3.376.583h-.466l.073.46a2.881 2.881 0 0 0 1.834 2.227l.075.026a.792.792 0 0 1 .236.108.731.731 0 0 1 .011.267l-.139 1.975q-12.445 10.283-23.982 21.813-9.764 9.764-18.621 20.207a8.569 8.569 0 0 1 0-1.406m.4 9.137a3.213 3.213 0 0 1 .316-2.125 5.251 5.251 0 0 0 .466-2.116 4.932 4.932 0 0 0-.62-1.88 10.865 10.865 0 0 1-.305-.67q9.013-10.624 18.933-20.58 11.223-11.223 23.333-21.261a3.959 3.959 0 0 1-.511 1.916 4.513 4.513 0 0 1-.879.878 4.853 4.853 0 0 0-1.076 1.116 3.374 3.374 0 0 0-.335 2.573 8.305 8.305 0 0 0 .995 2.249l.038.064q-9.069 7.855-17.623 16.408-11.657 11.656-22.018 24.283a2.114 2.114 0 0 1-.717-.854m-25.294 35.539a3.03 3.03 0 0 1 .5-.243 3.362 3.362 0 0 0 .675-.344 3.586 3.586 0 0 0 1.16-2.048 44.159 44.159 0 0 1 5.382-11.654 10.647 10.647 0 0 0 2.646.283q-5.648 8.1-10.806 16.516c-.264-.923-.32-2 .444-2.51m.651 10.631c-.484-.3-1.036-.71-1.022-1.181a1.641 1.641 0 0 1 .5-.894 4.716 4.716 0 0 0 .448-.6c.842-1.409.029-3.076-.625-4.415l-.038-.078v-.011q5.482-9 11.545-17.635c.1-.026.191-.049.286-.082a3.487 3.487 0 0 0 1.975-1.836 2.554 2.554 0 0 0 .218-1.18 2.045 2.045 0 0 0 .9-.123 3.139 3.139 0 0 0 1.79-1.809 7.824 7.824 0 0 0 .362-2.459c0-.07.006-.135.01-.2.014-.365.032-.718.079-1.066a4.069 4.069 0 0 1 .1-.509 2.456 2.456 0 0 1 1.379-1.8 1.316 1.316 0 0 1 .251-.07 3.189 3.189 0 0 1 .752.017h.043a4.615 4.615 0 0 0 .785.023 4.209 4.209 0 0 0 2.486-1.478 39.359 39.359 0 0 0 5.1-6.349l.262-.406-.448-.182a8.891 8.891 0 0 1-1.116-.545q10.313-12.551 21.915-24.165 8.482-8.483 17.481-16.28a6.052 6.052 0 0 0 2.118 2.144 1.72 1.72 0 0 0 1.25.231 2.026 2.026 0 0 0 .561-.267 1.571 1.571 0 0 1 .312-.166l.1-.028a.973.973 0 0 0 .784-.7l.976-2.411a2.862 2.862 0 0 0 .284-1.209 2.8 2.8 0 0 0-1.135-1.832c-.039-.036-.074-.071-.111-.107q6.8-5.659 13.871-10.937a29.72 29.72 0 0 0 2.226-.131 2.273 2.273 0 0 1 .626-.012 1.619 1.619 0 0 1 .585.263 8.46 8.46 0 0 1 1.683 1.632c.248.287.506.573.776.85a326.461 326.461 0 0 0-89.25 98.677Zm6.621 1.025a1.928 1.928 0 0 0-1.821.013 3.55 3.55 0 0 0-.577.444 1.645 1.645 0 0 1-.648.428 1.725 1.725 0 0 1-1.159-.4l-.655-.409a325.662 325.662 0 0 1 89.174-98.551 4.821 4.821 0 0 0 1.057.684.788.788 0 0 1 .3.18.766.766 0 0 1 .013.318c-.035.405-.038.8-.039 1.195 0 .372 0 .746-.035 1.127l-.042.5 3.339-.449a320.18 320.18 0 0 0-87.9 96.027 1.984 1.984 0 0 0-1.007-1.106m-10.016 21.123c-.253-.473-.543-.934-.822-1.379a9.176 9.176 0 0 1-1.441-3.041 4.53 4.53 0 0 1 2.519-4.836 22.853 22.853 0 0 0 7.91-5.869q-4.264 7.49-8.117 15.229c-.017-.034-.031-.071-.049-.1m73.31-69.207A298.075 298.075 0 0 0 311 337.184a12.733 12.733 0 0 1-1.441-2.371 17.376 17.376 0 0 1-.371-.937 10.691 10.691 0 0 0-.729-1.657 5.858 5.858 0 0 0-.806-1.055 305.978 305.978 0 0 1 108.86-125 23.083 23.083 0 0 0 1.516-.493l2.775-.993a3.562 3.562 0 0 0 1.375-.746 3.46 3.46 0 0 0 .487-.653 4.067 4.067 0 0 1 .28-.407 3.953 3.953 0 0 1 2.883-.974c2.8-.17 5.615-.2 8.426-.109a298.787 298.787 0 0 0-62.514 47.935m69.925-45.292c.08-.075.165-.151.251-.228.524-.47 1.176-1.054 1.088-1.891a2.269 2.269 0 0 0-.315-.846c-.04-.074-.081-.149-.118-.225a.6.6 0 0 1-.058-.549.782.782 0 0 1 .447-.157 8.92 8.92 0 0 1 3.669.226.807.807 0 0 1 .305.128.645.645 0 0 1 .14.347 4.038 4.038 0 0 1 .061.756q-3.087 1.62-6.13 3.312a3.125 3.125 0 0 1 .661-.873m5.442-1.521a4.2 4.2 0 0 0 .311 2.11l.063.122a.839.839 0 0 1 .124.312c0 .159-.34.305-.794.346l-4.9.433a1.818 1.818 0 0 1-.8-.07q2.978-1.661 6-3.253"/><path d="M351.248 593.977a268.607 268.607 0 0 0 43.034 56.129q7.772 7.772 16.066 14.808l.617.52a3.561 3.561 0 0 0 .352-.751c-.222-.187-.445-.372-.666-.561q-8.14-6.943-15.8-14.582a267.8 267.8 0 0 1-43.226-56.507c-.167-.292-.34-.581-.506-.874-.131.311-.261.621-.386.935.169.3.345.587.515.882"/><path d="M343.635 396.521c-.071.265-.139.531-.209.8.251.13.49.251.73.372l.209-.792a248.476 248.476 0 0 1 133.884-159.72c.578.049 1.164.051 1.739.052 1.525 0 2.966 0 4.013.889l.617.521.042-.806a2.155 2.155 0 0 1 1.558-1.736 6.735 6.735 0 0 1 2.77-.113c1.578.156 3.158.353 4.731.576a242.638 242.638 0 0 0-144.227 162.761l-.207.786.742.331c.068-.262.138-.523.207-.784A241.845 241.845 0 0 1 495.27 236.803c.743.115 1.492.219 2.228.348a26.849 26.849 0 0 1 6.958 1.968c.084.04.163.081.246.121a236.168 236.168 0 0 0-149.288 162.644c-.067.261-.139.521-.206.782l.745.317c.066-.261.139-.521.206-.782a235.33 235.33 0 0 1 149.546-162.458c.347-.121.7-.239 1.043-.358q-.476-.257-.978-.512-.472-.239-.967-.476a27.521 27.521 0 0 0-7.166-2.033c-.3-.052-.6-.09-.895-.14-.521-.087-1.044-.166-1.568-.246a114.908 114.908 0 0 0-6.107-.791 7.493 7.493 0 0 0-3.1.15 3.141 3.141 0 0 0-1.975 1.8 7.751 7.751 0 0 0-4-.706h-.1a17.14 17.14 0 0 1-1.762-.074c-.41.192-.822.38-1.232.574a249.33 249.33 0 0 0-133.263 159.59"/><path d="M361.334 404.448c-.067.263-.141.523-.207.786.248.112.493.229.742.343.066-.263.137-.525.2-.788a228.92 228.92 0 0 1 150.1-160.5c.28-.091.563-.177.843-.267-.192-.216-.4-.431-.616-.645-.288.093-.579.179-.867.274a229.74 229.74 0 0 0-150.2 160.8"/><path d="M445.163 582.074c-.292-.333-.591-.661-.881-1a183.618 183.618 0 0 1 93.663-297.792c-.062 1.9-.1 3.814-.1 5.713 0 .03.007.05.009.077a177.967 177.967 0 0 0-85.633 292.512c.223.243.448.483.673.724.318-.046.634-.1.948-.156l-.654-.7a177.213 177.213 0 0 1 85.311-291.716.9.9 0 0 0 .263-.062c.011 0 .021-.011.032-.015q7.4-1.9 14.992-3.167c.528-.087 1.057-.171 1.586-.254-.5-.174-1-.365-1.485-.573-.133-.057-.268-.109-.4-.17l-.414-.191a17.081 17.081 0 0 0-2.852-1.13 16.87 16.87 0 0 0-4.083-.385 12.78 12.78 0 0 0-2.364.134 1.651 1.651 0 0 0-.606.209 1.778 1.778 0 0 0-.512.556c-1.108 1.66-2.25 3.374-4.006 4.158 0-1.92.043-3.852.108-5.767.01-.276.015-.554.025-.83 0-.075 0-.151.007-.227l.016-.4-.4-.014c-1.964-.066-4-.2-5.962-.325s-3.985-.256-5.95-.324a1.309 1.309 0 0 1-.422-.056 1.157 1.157 0 0 1-.343-.276c-.118-.123-.229-.252-.341-.38-.064-.074-.131-.143-.195-.217-.127-.147-.261-.292-.394-.438a6.185 6.185 0 0 0-.859-.81 20.77 20.77 0 0 0 3.191-3.253 9.19 9.19 0 0 0 .974-1.6 8.17 8.17 0 0 0 .469-1.312q.122-.442.2-.892a21.634 21.634 0 0 0 .16-4.709l-.016-.394-.394.01a11.749 11.749 0 0 1-1.856-.1 11.436 11.436 0 0 1-1.655-.355c-.1-.028-.2-.05-.3-.08a9.014 9.014 0 0 1-.544-3.255 21.245 21.245 0 0 0-.124-1.678c-.021-.165-.061-.325-.087-.488-.043-.266-.086-.532-.141-.794-.258.075-.517.147-.774.223a210.364 210.364 0 0 0-144.77 155.857c-.6-1.832-2.736-2.916-4.658-3.886l-.159-.083a215.979 215.979 0 0 1 147.656-157.139c.26-.078.521-.15.782-.227-.124-.244-.247-.488-.376-.726a43.09 43.09 0 0 0-1.958-3.236 2.548 2.548 0 0 0-.87-.907 2.448 2.448 0 0 0-1.156-.227H516.267a.758.758 0 0 1-.284-.022.742.742 0 0 1-.121-.221l-.121-.287c-.256.081-.512.16-.767.243a223.268 223.268 0 0 0-147.777 158.03c-.066.268-.126.537-.191.806q.374.2.724.42a5.892 5.892 0 0 1 1.255 1c.18.2.343.412.505.625a6.5 6.5 0 0 0 .875 1 6.576 6.576 0 0 0 1.317.833l.351.187c.158.087.336.174.5.26.239.125.471.248.722.375h.011c2.051 1.037 4.371 2.213 4.379 4.206l.008 1.9.017 4.159.065 16.3a50.773 50.773 0 0 1-.686 10.507c-.283 1.36-.686 2.721-1.076 4.039-.35 1.181-.711 2.4-.989 3.629a39.334 39.334 0 0 0-.76 5.087 113.143 113.143 0 0 0-.287 3.884c-.131 2.211-.18 4.388-.192 6.534-.014 2.357.018 4.676.053 6.952.044 2.889.089 5.876.037 8.926a28.687 28.687 0 0 0-3.521 5.116 12.926 12.926 0 0 0-.592 1.368 8.877 8.877 0 0 0-.533 4.17 15.787 15.787 0 0 0 .7 2.789 6 6 0 0 1-.2 6.134 13.661 13.661 0 0 0-.608 1.265c-.974 2.437-.492 5.07-.025 7.616.126.686.251 1.368.347 2.044.071.5.122 1 .159 1.5a21.9 21.9 0 0 1 .018 2.944 20.662 20.662 0 0 1-1.364 6.311 29.405 29.405 0 0 1-1.525 3.193 66.28 66.28 0 0 1-.52.951c.114.339.233.677.349 1.016a227.771 227.771 0 0 0 51.89 84.729l-.342.363a7.853 7.853 0 0 0-1.287 1.639 6.83 6.83 0 0 0-.495 3.749v.057a233.666 233.666 0 0 1-53.1-83.257c-.153-.412-.31-.823-.461-1.238-.139.42-.265.845-.382 1.272q.245.664.493 1.327a234.553 234.553 0 0 0 53.485 83.091 7.435 7.435 0 0 1-.046.849l-.54 4.427a11.378 11.378 0 0 1-.3 1.675c-.855-.83-1.714-1.652-2.558-2.5a240.591 240.591 0 0 1-51.456-76.046c-.216-.509-.441-1.014-.653-1.524q-.077.83-.166 1.647a29.035 29.035 0 0 1-2.126 8.976c-.14.309-.3.61-.463.913-.1.182-.175.369-.278.549l-2.132-3.029-.067 1.144a69.4 69.4 0 0 0 .089 9.261q.083 1.1.2 2.227c.258 2.5.637 5.063 1.147 7.722a1.714 1.714 0 0 1-1.938 1.87l-.278-.064-.116.187-.035.057c-.151.243-.293.492-.44.74l.448.814a261.914 261.914 0 0 0 44.177 58.651c.191.191.387.375.578.565a3.065 3.065 0 0 0-.018.51 5.241 5.241 0 0 0 .731 2.093c.195.369.383.746.572 1.123a18.84 18.84 0 0 0 2.536 4.127l.073.082.1.034a49.338 49.338 0 0 0 6.058 1.514q1.489 1.336 2.994 2.651c.208.18.411.368.619.548a35.43 35.43 0 0 1 .924-1.728 1.282 1.282 0 0 0 .227-.767c-.029-.312-.241-.854-1.345-.982a48.835 48.835 0 0 1-3.054-.466c-.514-.093-1.028-.183-1.539-.293a49.65 49.65 0 0 1-4.534-1.2 18.777 18.777 0 0 1-2.349-3.874 66.987 66.987 0 0 0-.578-1.136 5.8 5.8 0 0 1-.584-1.413 2.292 2.292 0 0 1-.058-.353 2.338 2.338 0 0 1 .084-.739 6.7 6.7 0 0 1 .985-1.869 12.165 12.165 0 0 0 .794-1.315 11.533 11.533 0 0 0 .486-1.2c.11-.3.223-.6.345-.876a4.107 4.107 0 0 1 .4-.737c-.191-.191-.376-.387-.565-.579a254.107 254.107 0 0 1-46.066-63.911 70.871 70.871 0 0 1-.334-10.059l1.5 2.139.319-.513c.118-.188.225-.38.334-.572a248.214 248.214 0 0 0 49.371 70.19l.045.043c.207.207.42.408.629.614q.422-.16.851-.289a8.056 8.056 0 0 1 1.073-.254 13.6 13.6 0 0 1 1.914-.109c.478 0 .973-.009 1.465-.051a2.814 2.814 0 0 0 .971-.22 2.31 2.31 0 0 0 .963-.923c.044-.071.09-.139.131-.217a4.572 4.572 0 0 0 .231-.549 9.951 9.951 0 0 0 .452-2.2l.541-4.427c.007-.058.009-.117.014-.175a9.524 9.524 0 0 0 .035-1.1 27.202 27.202 0 0 0-.042-.961 6.142 6.142 0 0 1 .4-3.325 7.249 7.249 0 0 1 1.164-1.469l.319-.339.549-.584c-.186-.191-.375-.381-.56-.573a226.964 226.964 0 0 1-51.915-85.082 33 33 0 0 0 1.916-3.931 21.139 21.139 0 0 0 1.208-4.572 221.23 221.23 0 0 0 52.811 89.722c.191.2.385.394.577.592a6.084 6.084 0 0 1 .769-.359 16.244 16.244 0 0 1 1.8-.551 11.144 11.144 0 0 0 2.856-1.035l.3-.178-.842-2.016-.864-2.032-.886-2.083-.625.477-.64.489-2.378 1.816c-.016.012-.045.034-.042.047a1.55 1.55 0 0 1-.152-.137 6.225 6.225 0 0 0-2.582-1.3 6.511 6.511 0 0 1-2.089-.942.917.917 0 0 1-.306-.351 1.327 1.327 0 0 1-.038-.519l.316-6.768.024-.508a1.139 1.139 0 0 1 .077-.456.466.466 0 0 1 .07-.074 1.356 1.356 0 0 1 .332-.248 9.657 9.657 0 0 1 2.728-1.015.825.825 0 0 1 .4-.021.846.846 0 0 1 .273.292c.131.188.259.38.387.572a11.748 11.748 0 0 0 1.352 1.771 3.4 3.4 0 0 0 3.991 1.016c.266-.1.525-.217.78-.337l-.565-.621a207.255 207.255 0 0 1-53.44-128.145c.013-2.115.062-4.24.192-6.443a54 54 0 0 1 1.029-8.84c.272-1.2.629-2.41.975-3.58.394-1.333.8-2.71 1.092-4.1a51.343 51.343 0 0 0 .7-10.673l-.082-20.376a209.529 209.529 0 0 1 144.73-158.087c.019.123.05.243.066.367.067.525.093 1.078.119 1.615a9.62 9.62 0 0 0 .637 3.587 203.5 203.5 0 0 0-89.981 332.988c.211.227.42.454.632.68q.45-.111.866-.244c-.2-.216-.4-.436-.608-.654a202.766 202.766 0 0 1 90.1-332.233 12.334 12.334 0 0 0 3.136.43 17.9 17.9 0 0 1-.24 4.538 197.126 197.126 0 0 0-90.886 321.346c.313.346.637.685.952 1.028a1.7 1.7 0 0 1-.179-.833 1.524 1.524 0 0 1 .113-.414 5.057 5.057 0 0 1 .323-.63l.1-.174a9.863 9.863 0 0 0 1.228-5.728v-.01a9.625 9.625 0 0 0-.281-1.518 9.885 9.885 0 0 0-1.557-3.327 19.916 19.916 0 0 1 5.541-.024c.2.033.4.078.6.118.245.049.491.093.735.146l.567.118m98.158-296.937a1.076 1.076 0 0 1 .274-.323.925.925 0 0 1 .319-.1 12.085 12.085 0 0 1 2.215-.122 15.7 15.7 0 0 1 3.887.359 14.9 14.9 0 0 1 2.434.943q-5.867 1.017-11.624 2.427a18.071 18.071 0 0 0 2.495-3.187m-170.9 126.318-.363-.194a4.283 4.283 0 0 1-1.927-1.607 10.05 10.05 0 0 0-.551-.681 7.025 7.025 0 0 0-1.653-1.28 222.45 222.45 0 0 1 147.402-157.712.887.887 0 0 0 .2.2 1.256 1.256 0 0 0 .759.163q.617-.017 1.232-.006a1.768 1.768 0 0 1 .792.132 1.853 1.853 0 0 1 .58.642c.6.91 1.236 1.929 1.837 3.024a216.79 216.79 0 0 0-148 157.476c-.1-.053-.211-.107-.308-.159m40.337 244.715c.4.046.631.167.639.259a.762.762 0 0 1-.124.3c-.152.266-.31.551-.469.845-.629-.546-1.25-1.1-1.874-1.657.609.094 1.217.186 1.828.257m-10.51-16.154a11.378 11.378 0 0 0-.5 1.219 10.9 10.9 0 0 1-.452 1.123 11.357 11.357 0 0 1-.743 1.225 9.259 9.259 0 0 0-.954 1.691c-.079-.078-.161-.155-.24-.235a261.089 261.089 0 0 1-44.27-58.888c.021-.034.041-.07.062-.1a2.432 2.432 0 0 0 1.867-.714 2.369 2.369 0 0 0 .745-2.131 92.299 92.299 0 0 1-.888-5.56 254.962 254.962 0 0 0 45.372 62.375m12.172-4.419a2.134 2.134 0 0 1-.7.149c-.462.039-.941.044-1.405.048a14.353 14.353 0 0 0-2.026.119 9.284 9.284 0 0 0-1.6.412c-.1-.1-.207-.2-.308-.3a247.371 247.371 0 0 1-49.469-70.521 26.672 26.672 0 0 0 2.324-8.45 241.451 241.451 0 0 0 51.081 75.02c.929.929 1.874 1.836 2.815 2.747a1.65 1.65 0 0 1-.714.77m5.6-25.479a5.572 5.572 0 0 1 2.278 1.12.959.959 0 0 0 .773.356.946.946 0 0 0 .455-.211l2.442-1.864c.308.327.614.654.925.979l1.379 3.244a11.974 11.974 0 0 1-2.345.784 14.431 14.431 0 0 0-2.2.706q-2.757-2.852-5.4-5.78a10.086 10.086 0 0 0 1.7.667m-2.649-9.888-.34 7.276a2.984 2.984 0 0 0 .01.5 219.972 219.972 0 0 1-46.65-84.229 22.967 22.967 0 0 0-.194-4.469c-.1-.686-.224-1.379-.352-2.075-.446-2.435-.907-4.952-.02-7.175a13.212 13.212 0 0 1 .574-1.191 6.754 6.754 0 0 0 .258-6.746 15.379 15.379 0 0 1-.665-2.645 7.486 7.486 0 0 1 .051-2.125 214.014 214.014 0 0 0 47.345 102.538 3.415 3.415 0 0 0-.03.34m9.826 1.223a2.586 2.586 0 0 1-.624.117 2.99 2.99 0 0 1-2.214-1.043 10.941 10.941 0 0 1-1.257-1.654c-.13-.2-.261-.392-.395-.585a1.229 1.229 0 0 0-1.5-.6 10.43 10.43 0 0 0-2.953 1.1 2.457 2.457 0 0 0-.458.334 213.211 213.211 0 0 1-47.245-103.633 23.874 23.874 0 0 1 4-6.168l.088-.107v-.139c.03-1.683.029-3.34.016-4.976a207.917 207.917 0 0 0 52.537 117.353m11.574-14.815a9.042 9.042 0 0 1-1.128 5.268l-.1.168c-.071.123-.143.252-.213.386a196.386 196.386 0 0 1 90.343-319.579 7.184 7.184 0 0 1-.284.709 8.4 8.4 0 0 1-.891 1.463 22.127 22.127 0 0 1-3.479 3.476l-.448.384.521.275a3.677 3.677 0 0 1 .87.675 190.772 190.772 0 0 0-85.388 305.57 8.851 8.851 0 0 1 .2 1.2m-1.839-5.614-.721.1.471.555a8.878 8.878 0 0 1 1 1.457 190.037 190.037 0 0 1 86.878-302.614l.039.043c.184.213.369.426.562.627a1.832 1.832 0 0 0 .617.462 1.948 1.948 0 0 0 .7.116c1.952.067 3.971.2 5.924.324 1.839.119 3.736.24 5.585.311v.055a184.37 184.37 0 0 0-94.935 298.405 22.636 22.636 0 0 0-6.123.159"/><path d="M425.212 461.186c0-87.119 70.876-158 157.995-158a158.359 158.359 0 0 1 26.641 2.258c-.594-.393-1.2-.778-1.827-1.115a159.256 159.256 0 0 0-24.814-1.944c-87.56 0-158.8 71.236-158.8 158.8a158.3 158.3 0 0 0 46.748 112.401l-.205.175a10.486 10.486 0 0 0-.991 1.013 4.572 4.572 0 0 1-1.84 1.487 7.438 7.438 0 0 1-1.888.265 163.828 163.828 0 0 1-47.395-115.34c0-85.581 65.746-156.083 149.381-163.68l-.412 2.68.549-.1c1.559-.269 3.172-.549 4.742-.96l.473-.127a13.936 13.936 0 0 1 1.77-.4 14.488 14.488 0 0 1 2.447-.046 23.138 23.138 0 0 1 3.089.255 11.818 11.818 0 0 1 6.312 3.25l.217.221.269-.154a7.962 7.962 0 0 1 4.763-.792 30.305 30.305 0 0 1 3.09.508c.651.131 1.3.262 1.959.365 1.017.162 2.061.262 3.07.36a21.635 21.635 0 0 1 6.539 1.313c.314.136.622.289.927.453.711.111 1.42.231 2.128.353a18.131 18.131 0 0 0-2.737-1.542 22.249 22.249 0 0 0-6.78-1.375c-1-.1-2.028-.2-3.021-.353-.645-.1-1.287-.231-1.928-.359a30.713 30.713 0 0 0-3.173-.521 9 9 0 0 0-4.964.749 12.7 12.7 0 0 0-6.533-3.264 23.7 23.7 0 0 0-3.207-.268 11.188 11.188 0 0 0-4.448.477l-.466.125c-1.355.355-2.756.613-4.127.85l.273-1.773.125-.815v-.008a1.687 1.687 0 0 0-.025-.828 1.625 1.625 0 0 0-.588-.714 32.135 32.135 0 0 0-1.693-1.212 16.22 16.22 0 0 1-2.9-2.324 6.636 6.636 0 0 1-.59-.753c-.3.034-.594.063-.89.1a171.559 171.559 0 0 0-103.866 288.215l.567.6c.263-.155.527-.312.784-.456.358-.2.713-.394 1.071-.568a9.081 9.081 0 0 1 4.823-1.316h.05c.35-.013.7-.03 1.059-.062a6.724 6.724 0 0 0 1.39-.254 5.21 5.21 0 0 0 2.2-1.719 9.776 9.776 0 0 1 .928-.95c.082-.069.163-.143.244-.211.2-.172.4-.35.606-.527-.189-.187-.382-.37-.571-.557a157.507 157.507 0 0 1-46.55-111.886m38.777 115.523a12.9 12.9 0 0 0-3.306 1.24c-.431.209-.862.446-1.292.692a170.139 170.139 0 0 1-46.93-117.455c0-87.316 65.884-159.523 150.548-169.546a14.829 14.829 0 0 0 3.4 2.875c.554.38 1.127.771 1.652 1.183a.977.977 0 0 1 .326.348 1.049 1.049 0 0 1-.011.441l-.031.2c-84.137 7.541-150.307 78.43-150.307 164.5a164.614 164.614 0 0 0 47.124 115.4 9.831 9.831 0 0 0-1.17.123"/><path d="M431.588 461.182c0-83.6 68.016-151.619 151.619-151.619A151.438 151.438 0 0 1 620 314.086q-.682-.561-1.347-1.154a152.27 152.27 0 0 0-35.446-4.17c-84.044 0-152.42 68.375-152.42 152.42a151.943 151.943 0 0 0 44.7 107.73c.191.191.388.377.581.567.155-.219.309-.443.462-.667-.192-.191-.388-.378-.579-.569a151.147 151.147 0 0 1-44.36-107.06"/><path d="M469.04 461.181a113.81 113.81 0 0 0 33.477 80.69c.188.189.383.372.573.56a2.352 2.352 0 0 0 .511-.62c-.192-.19-.388-.376-.578-.567A113.327 113.327 0 0 1 628.87 357.43c.165-.221.326-.44.489-.66A114.146 114.146 0 0 0 469.04 461.181"/><path d="M475.416 461.182a107.42 107.42 0 0 0 30.311 74.857l.582.6c.135-.242.275-.481.416-.719-.194-.2-.389-.4-.581-.595a106.959 106.959 0 0 1 118.467-172.796c.191-.208.38-.419.571-.629a107.789 107.789 0 0 0-149.766 99.282"/><path d="M481.791 461.181a101.046 101.046 0 0 0 27.619 69.488c.194.205.386.412.581.616.074-.131.147-.264.21-.4s.09-.26.136-.39a11.664 11.664 0 0 0 .365-1.317 4.162 4.162 0 0 1 1.007-2.321l-.107-.145c.512-.46 1.03-.918 1.544-1.377l.6-.533q-.27-.3-.539-.593A94.21 94.21 0 0 1 616.364 372.97c.123-.239.256-.474.387-.71a95 95 0 0 0-104.142 152.48c-.7.621-1.4 1.243-2.088 1.865l.165.222a6.356 6.356 0 0 0-.766 2.175 15.92 15.92 0 0 1-.2.827 100.589 100.589 0 0 1 110.367-162.263c.18-.215.356-.433.538-.645a101.413 101.413 0 0 0-138.834 94.26"/><path d="M583.21 372.516a88.619 88.619 0 0 0-65.826 148c.179.2.36.395.541.592l.6-.529q-.271-.3-.541-.593a87.846 87.846 0 0 1 93.555-141.983 2.224 2.224 0 0 0 .026-.372l-.011-.409h.175a88.31 88.31 0 0 0-28.52-4.706"/><path d="M507.293 461.182a75.611 75.611 0 0 0 19.475 50.712c-.228.367-.456.733-.707 1.082l-.1.153q-1.58 1.336-3.158 2.692a81.472 81.472 0 0 1 86.7-131.774 5.471 5.471 0 0 1-.1-.878 82.259 82.259 0 0 0-87.209 133.171c.179.2.361.393.542.589l.609-.52q1.611-1.38 3.222-2.745l.224-.03.034-.351c.177-.252.334-.517.5-.777.148-.232.305-.46.444-.7-.191-.21-.38-.422-.569-.633a75.09 75.09 0 0 1 82.338-120.339c.075-.255.149-.513.22-.773a75.912 75.912 0 0 0-102.465 71.121"/><path d="M513.669 461.181a69.219 69.219 0 0 0 16.2 44.564q.284.339.57.674c.125-.27.253-.537.381-.807-.187-.221-.384-.434-.569-.657A68.7 68.7 0 0 1 608.23 397.18c.034-.279.068-.558.108-.836a69.536 69.536 0 0 0-94.669 64.837"/><path d="M545.546 461.181a37.661 37.661 0 0 0 .708 7.253c.062.316.131.629.2.943.222-.228.441-.457.664-.683-.066-.317-.119-.639-.177-.959a36.834 36.834 0 0 1 53.366-39.19c.212-.2.432-.382.655-.565a37.645 37.645 0 0 0-55.417 33.2"/><path d="M551.922 461.182a29.968 29.968 0 0 0 .113 2.553c.25-.258.5-.52.743-.78a87.912 87.912 0 0 0 2.119-2.293 72.753 72.753 0 0 0 3.419-.218q.4-.035.8-.074.013-.407.04-.81a24.085 24.085 0 0 1 35.917-19.351l.13-.85a24.895 24.895 0 0 0-36.856 20.272c-1.22.106-2.442.192-3.653.234l-.172.006-.115.13c-.544.617-1.1 1.227-1.671 1.83 0-.217-.017-.432-.017-.651a30.471 30.471 0 0 1 43.887-27.372c.128-.23.252-.468.375-.708a31.272 31.272 0 0 0-45.062 28.08"/><path d="M564.834 458.78a18.78 18.78 0 0 0-.089.826c.154-.027.311-.049.464-.078l.35-.068a6.329 6.329 0 0 0 3.468-1.579 6.8 6.8 0 0 0 .584-.732 6.79 6.79 0 0 1 .479-.609 6.025 6.025 0 0 1 2.132-1.322c.173-.073.351-.132.525-.2.42-.167.841-.331 1.268-.477a26.958 26.958 0 0 1 12.013-1.238 2.183 2.183 0 0 0 1.22-.089 2.045 2.045 0 0 0 .8-.758c.261-.374.5-.763.742-1.156a11.47 11.47 0 0 0-.716-.366c-.219.36-.441.719-.682 1.064a1.379 1.379 0 0 1-.473.489 1.594 1.594 0 0 1-.79.022 27.683 27.683 0 0 0-11.175.9 11.274 11.274 0 0 1 13.12-2.477c.138-.229.268-.462.4-.7a12.079 12.079 0 0 0-14.94 3.622c-.544.191-1.083.4-1.616.621a6.739 6.739 0 0 0-2.409 1.518 7.494 7.494 0 0 0-.537.682 6.271 6.271 0 0 1-.516.65 5.237 5.237 0 0 1-2.785 1.293 17.726 17.726 0 0 1 25.98-13.027 3.254 3.254 0 0 1 .649-.279c.109-.032.229-.049.344-.074a18.518 18.518 0 0 0-27.81 13.541"/></svg>
